<?xml version='1.0' encoding='utf-8'?>
<svg xmlns="http://www.w3.org/2000/svg" enable-background="new 0 0 4000 4000" version="1.1" viewBox="0 0 4e3 4e3"> <style type="text/css"> .st0{fill:#FFFFFF;} .st1{fill:#F1E3F4;} .st2{fill:#B968C7;} .st3{fill:#4B1689;} .st4{fill:#27313A;} .st5{fill:#9D29AD;} .st6{fill:#90A2AC;} .st7{fill:#E0BDE7;} .st8{fill:#CE92D6;} .st9{fill:#536D78;} .st10{fill:#778F9B;} .st11{fill:#36464E;} .st12{fill:#A948B8;} .st13{fill:#691D98;} .st14{fill:#8E25A8;} .st15{fill:#7921A0;} </style> <rect class="st0" width="4e3" height="4e3"/> <path class="st1" d="m3128.9 2977.9s191.8-216.2 209.8-633.5c7.8-180.2 89.1-302.5-48-389.7s-269.7 125.1-378.9 33.2-142.2-434.1-380.2-399.4-298.2 14.8-156.1-134.6c165.3-173.7 208.8-374.2 65.3-442.7-434.1-207-666.2 383-1167.3 630.1-92.1 45.4-237 14.1-307.4 0-394.3-78.7-630.9 317.9-244.9 454.5 498.2 176.3 285.8 406.1 217.3 539s-55 342.9-55 342.9h2245.4z"/> <circle class="st2" cx="1312.5" cy="1454" r="39"/> <path d="m1312.5 1498.9c-24.8 0-45-20.2-45-45s20.2-45 45-45 45 20.2 45 45-20.2 45-45 45zm0-77.9c-18.2 0-33 14.8-33 33s14.8 33 33 33 33-14.8 33-33-14.8-33-33-33z"/> <circle class="st3" cx="3002.1" cy="1631.3" r="36.8"/> <circle class="st4" cx="2773.8" cy="2418.9" r="19.3"/> <circle class="st3" cx="3134.9" cy="1859" r="19.3"/> <circle class="st4" cx="1672.2" cy="1543.3" r="19.3"/> <circle class="st3" cx="919.4" cy="2733.3" r="19.3"/> <path d="m3002.1 1674.1c-23.6 0-42.8-19.2-42.8-42.8s19.2-42.8 42.8-42.8 42.8 19.2 42.8 42.8-19.2 42.8-42.8 42.8zm0-73.6c-17 0-30.8 13.8-30.8 30.8s13.8 30.8 30.8 30.8 30.8-13.8 30.8-30.8-13.8-30.8-30.8-30.8z"/> <path class="st3" d="m917.6 1772.5c-2.3-2.3-6.1-2.3-8.5 0l-25.5 25.5-25.5-25.5c-2.3-2.3-6.1-2.3-8.5 0-2.3 2.3-2.3 6.1 0 8.5l25.5 25.5-25.5 25.5c-2.3 2.3-2.3 6.1 0 8.5 1.2 1.2 2.7 1.8 4.2 1.8s3.1-0.6 4.2-1.8l25.5-25.5 25.5 25.5c1.2 1.2 2.7 1.8 4.2 1.8s3.1-0.6 4.2-1.8c2.3-2.3 2.3-6.1 0-8.5l-25.5-25.5 25.5-25.5c2.5-2.3 2.5-6.1 0.2-8.5z"/> <path class="st5" d="m3010.6 2151 32.3-32.3c2.3-2.3 2.3-6.1 0-8.5-2.3-2.3-6.1-2.3-8.5 0l-32.3 32.3-32.3-32.3c-2.3-2.3-6.1-2.3-8.5 0-2.3 2.3-2.3 6.1 0 8.5l32.3 32.3-32.3 32.3c-2.3 2.3-2.3 6.1 0 8.5 1.2 1.2 2.7 1.8 4.2 1.8s3.1-0.6 4.2-1.8l32.3-32.3 32.3 32.3c1.2 1.2 2.7 1.8 4.2 1.8s3.1-0.6 4.2-1.8c2.3-2.3 2.3-6.1 0-8.5l-32.1-32.3z"/> <polygon class="st6" points="2644 1414.7 2565.8 1492.9 2543.1 1392"/> <path d="m2565.8 1498.9c-0.6 0-1.1-0.1-1.7-0.2-2.1-0.6-3.7-2.3-4.2-4.4l-22.7-100.9c-0.5-2 0.2-4.1 1.6-5.6 1.5-1.5 3.6-2.1 5.6-1.6l100.9 22.7c2.1 0.5 3.8 2.1 4.4 4.2s0 4.4-1.5 5.9l-78.3 78.3c-1 1-2.5 1.6-4.1 1.6zm-14.8-99 18.2 81.1 62.9-62.9-81.1-18.2z"/> <polygon class="st6" points="883.6 2444.9 805.4 2523.2 782.7 2422.2"/> <path d="m805.3 2529.2c-0.6 0-1.1-0.1-1.7-0.2-2.1-0.6-3.7-2.3-4.2-4.4l-22.7-100.9c-0.5-2 0.2-4.1 1.6-5.6 1.5-1.5 3.6-2.1 5.6-1.6l100.9 22.7c2.1 0.5 3.8 2.1 4.4 4.2s0 4.4-1.5 5.9l-78.3 78.3c-0.9 0.9-2.5 1.6-4.1 1.6zm-14.7-99.1 18.2 81.1 62.9-62.9-81.1-18.2z"/> <polygon class="st7" points="3128.9 2575.5 3050.6 2653.8 3028 2552.8"/> <path d="m3050.6 2659.8c-0.6 0-1.1-0.1-1.7-0.2-2.1-0.6-3.7-2.3-4.2-4.4l-22.7-100.9c-0.5-2 0.2-4.1 1.6-5.6 1.5-1.5 3.6-2.1 5.6-1.6l100.9 22.7c2.1 0.5 3.8 2.1 4.4 4.2s0 4.4-1.5 5.9l-78.3 78.3c-1 0.9-2.5 1.6-4.1 1.6zm-14.7-99.1 18.2 81.1 62.8-62.8-81-18.3z"/> <circle class="st3" cx="2287.1" cy="1641.3" r="19.3"/> <path class="st7" d="m3039.9 2936.9c0 16.6-3.3 32.5-9.4 46.9h-2061c-6.1-14.4-9.4-30.3-9.4-46.9 0-25.9 8.1-49.9 21.9-69.6 22-31.4 58.4-51.9 99.6-51.9 2.4 0 4.7 0.1 7 0.2 20.2 1.1 39.1 7.2 55.5 17.1 9.5-9.2 20.7-16.7 33.1-22-6.9-14.4-10.7-30.4-10.7-47.4 0-25 8.4-48.1 22.4-66.5 17.9-23.5 45.1-39.6 76-42.8 3.8-0.4 7.6-0.6 11.5-0.6 6.8 0 13.5 0.6 20 1.8 5.5 1 10.8 2.4 16 4.2 17.4-8.9 38.6-25.6 53.8-38.4 11.8-10 20.1-17.7 20.1-17.7l27.1-21.6 14.1-11.2c6.8-2.4 13.6-5 20.3-7.7 127.4-50.7 235.6-142.2 312.3-259.5 13.4-20.5 25.9-41.8 37.3-63.9 8.9-17.2 17.3-34.9 24.9-53 0.4-1 0.8-2 1.2-2.9 1.7-4.1 3.4-8.1 5-12.2 18-45.3 32-93 41.3-142.6 19.2-102.1 34-205.3 35.8-287.2 0.1-4.7 0.2-13.8 0.2-13.8h188.3s0.1 9.1 0.2 13.8c1.7 81.8 16.5 185.1 35.8 287.2 9.3 49.5 23.2 97.2 41.3 142.6 3.2 8 6.5 16 9.9 23.8 6.6 15.1 13.7 29.9 21.2 44.3l1.2 2.4c23.1 44.1 50.2 85.2 81 122.9 10 12.3 20.5 24.2 31.2 35.7 71.3 76.2 158.6 135 256.5 170.1l41.1 32.8s43 40.4 73.9 56.2c11.3-3.9 23.4-6 36-6 60.7 0 109.9 49.2 109.9 109.9 0 17-3.8 33.1-10.7 47.4 12.4 5.3 23.6 12.8 33.1 22 18.3-11 39.7-17.3 62.5-17.3 67.3-0.1 121.7 54.3 121.7 121.4z"/> <path class="st8" d="m2838.6 2941.5c0 15-2.7 29.3-7.6 42.4h-1662c-4.9-13-7.6-27.4-7.6-42.4 0-23.4 6.5-45 17.6-62.8 17.7-28.4 47.1-46.9 80.3-46.9 1.9 0 3.8 0.1 5.7 0.2 16.3 1 31.6 6.5 44.8 15.5 7.7-8.3 16.7-15.1 26.7-19.9-5.5-13-8.6-27.5-8.6-42.8 0-22.6 6.7-43.4 18.1-60.1 14.4-21.2 36.3-35.8 61.3-38.6 3-0.4 6.1-0.5 9.2-0.5 5.5 0 10.9 0.6 16.1 1.7 4.4 0.9 8.7 2.2 12.9 3.8 14-8 31.1-23.1 43.4-34.7 9.6-9 16.2-16 16.2-16l21.9-19.5 11.3-10.1c5.5-2.2 11-4.5 16.4-7 102.8-45.8 190-128.4 251.9-234.4 10.8-18.5 20.9-37.8 30.1-57.7 7.2-15.6 13.9-31.5 20.1-47.9 0.3-0.9 0.7-1.8 1-2.7 1.4-3.7 2.7-7.3 4-11 14.5-40.9 25.8-84 33.3-128.8 15.5-92.2 27.4-185.5 28.8-259.4 0.1-4.2 0.1-8.4 0.1-12.5v-101.8h151.8v101.8c0 4.1 0.1 8.3 0.1 12.5 1.4 73.9 13.3 167.1 28.8 259.4 7.5 44.7 18.8 87.8 33.3 128.8 2.6 7.3 5.3 14.4 8 21.5 5.3 13.6 11 27 17.1 40.1 0.3 0.7 0.6 1.4 1 2.1 18.6 39.8 40.5 77 65.3 111 8.1 11.1 16.5 21.8 25.2 32.3 57.5 68.8 127.9 121.9 206.9 153.6l33.2 29.6s34.7 36.5 59.6 50.8c9.1-3.5 18.9-5.4 29-5.4 49 0 88.7 44.4 88.7 99.3 0 15.3-3.1 29.9-8.6 42.8 10 4.8 19 11.5 26.7 19.8 14.7-9.9 32-15.6 50.4-15.6 54.2-0.3 98.1 48.9 98.1 109.5z"/> <path class="st8" d="m2218.6 1363.6c0 62.5-26.2 118.8-68.2 158.6-33 31.3-51.3 75.2-51.3 120.7v1.8h-198.2v-1.9c0-46-19.2-89.7-52.3-121.5-41.5-39.8-67.2-95.8-67.2-157.8 0.1-115.3 88.5-209.1 201.5-217.8 1.7-0.1 3.4-0.2 5.2-0.3 4.1-0.2 8.2-0.3 12.4-0.3 120.5 0.2 218.1 98 218.1 218.5z"/> <path class="st7" d="m2184.5 1363.6c0 62.5-26.2 118.8-68.2 158.6-33 31.3-51.3 75.2-51.3 120.7v1.8h-164.1v-1.9c0-46-19.2-89.7-52.3-121.5-14.9-14.3-27.7-30.7-38.1-48.6-18.2-31.6-28.8-68.2-29.1-107.3v-1.9c0.1-115.3 88.5-209.1 201.5-217.8 6.1 0.5 12.2 1.2 18.2 2.2 34.5 5.6 66.3 19.2 93.4 39 54.6 39.7 90 104.1 90 176.7z"/> <path class="st9" d="m2099.1 1644.7v52.4c0 54.7-44.4 99.1-99.1 99.1-4 0-8-0.2-11.9-0.7-1.7-0.2-3.4-0.5-5.1-0.8-46.6-8.1-82.1-48.7-82.1-97.6v-52.4h198.2z"/> <path class="st10" d="m2065 1644.7v52.4c0 48.9-35.4 89.5-82.1 97.6-46.6-8.1-82.1-48.7-82.1-97.6v-52.4h164.2z"/> <rect class="st11" x="1900.9" y="1668.1" width="198.2" height="10.2"/> <path class="st11" d="m2099 1701.2-0.3 5.1-0.6 5.1h-196.2l-0.6-5.1c-0.2-1.7-0.3-3.4-0.3-5.1h198z"/> <path class="st11" d="m2074.9 1762.1c-1.5 1.8-3.1 3.5-4.8 5.1-1.8 1.8-3.6 3.5-5.5 5.1h-129.3c-1.9-1.6-3.7-3.3-5.5-5.1-1.6-1.6-3.2-3.3-4.8-5.1h149.9z"/> <path class="st3" d="m2081.2 1473.5c0-18.6-12.3-33.8-27.3-33.8-15.1 0-27.3 15.1-27.3 33.8v34.4l-4.5 0.7c-14.7 2.3-29.5 2.3-44.2 0.1l-4.4-0.7v-34.5c0-18.6-12.3-33.8-27.3-33.8-15.1 0-27.3 15.1-27.3 33.8 0 18.1 8.7 31.4 25.3 38.7 7.3 3.2 14.6 4.5 19.3 5l-0.1 127.6h10.2l0.1-126.4 2.7 0.4c15.7 2.4 31.7 2.4 47.4-0.1l2.7-0.4 0.1 126.5h10.2l-0.1-127.6c7.7-0.8 22.7-3.7 33.2-14.2 7.5-7.6 11.3-17.5 11.3-29.5zm-118 33.3c-3.9-0.5-9.5-1.6-15.1-4-12.7-5.6-19.1-15.4-19.1-29.3 0-13 7.7-23.5 17.1-23.5s17.1 10.6 17.1 23.5v33.3zm73.6 0.1v-33.4c0-13 7.7-23.5 17.1-23.5s17.1 10.6 17.1 23.5c0 26.3-23.6 32.1-34.2 33.4z"/> <path class="st1" d="m1854.3 1432.7c-2 0-3.8-1.1-4.7-3.1-9.2-20.8-13.8-43-13.8-66 0-35.6 11.2-69.4 32.3-97.8 1.7-2.3 4.9-2.7 7.2-1.1 2.3 1.7 2.7 4.9 1.1 7.2-19.8 26.7-30.3 58.4-30.3 91.7 0 21.5 4.4 42.3 12.9 61.9 1.1 2.6 0 5.6-2.6 6.7-0.7 0.4-1.4 0.5-2.1 0.5z"/> <path class="st3" d="m2e3 1098c-2.8 0-5.1-2.3-5.1-5.1l-0.3-124.9c0-2.8 2.3-5.1 5.1-5.1s5.1 2.3 5.1 5.1l0.3 124.9c0 2.8-2.2 5.1-5.1 5.1z"/> <path class="st3" d="m2174.6 1142.2c-1.3 0-2.6-0.5-3.6-1.5-2-2-2-5.2 0-7.2l88.1-88.5c2-2 5.2-2 7.2 0s2 5.2 0 7.2l-88.1 88.5c-1 1-2.3 1.5-3.6 1.5z"/> <path class="st3" d="m1825.8 1142c-1.3 0-2.6-0.5-3.6-1.5l-88.5-88.1c-2-2-2-5.2 0-7.2s5.2-2 7.2 0l88.5 88.1c2 2 2 5.2 0 7.2-1 1-2.3 1.5-3.6 1.5z"/> <path class="st3" d="m1922.2 2101.6c-0.5 0-1-0.1-1.5-0.2-3.2-0.8-5.1-4.1-4.3-7.3 2.4-9.2 4.5-18.6 6.2-27.9 3.9-21 7.3-40.7 10-58.8 0.5-3.3 3.5-5.5 6.8-5s5.5 3.5 5 6.8c-2.7 18.2-6.1 38.1-10.1 59.2-1.8 9.6-4 19.3-6.4 28.7-0.6 2.7-3.1 4.5-5.7 4.5z"/> <path class="st3" d="m2077.8 2101.6c-2.7 0-5.1-1.8-5.8-4.5-2.4-9.4-4.6-19.1-6.4-28.7-4-21.1-7.4-41-10.1-59.2-0.5-3.3 1.8-6.3 5-6.8 3.3-0.5 6.3 1.8 6.8 5 2.7 18 6.1 37.8 10 58.8 1.8 9.3 3.9 18.7 6.2 27.9 0.8 3.2-1.1 6.5-4.3 7.3-0.4 0.1-0.9 0.2-1.4 0.2z"/> <path class="st3" d="m1906.6 2149.5c-0.7 0-1.5-0.1-2.2-0.4-3.1-1.2-4.6-4.7-3.4-7.8 2.5-6.4 4.9-13.1 7.2-19.7 1.1-3.1 4.5-4.8 7.6-3.8 3.1 1.1 4.8 4.5 3.8 7.6-2.3 6.8-4.8 13.7-7.4 20.3-0.9 2.4-3.2 3.8-5.6 3.8z"/> <path class="st3" d="m2093.4 2149.5c-2.4 0-4.7-1.4-5.6-3.8-2.6-6.7-5.1-13.5-7.4-20.3-1.1-3.1 0.6-6.5 3.8-7.6 3.1-1.1 6.5 0.6 7.6 3.8 2.2 6.6 4.6 13.2 7.2 19.7 1.2 3.1-0.3 6.6-3.4 7.8-0.7 0.3-1.5 0.4-2.2 0.4z"/> <path class="st3" d="m2e3 2132.5c-3.3 0-6-2.7-6-6v-75.6c0-3.3 2.7-6 6-6s6 2.7 6 6v75.6c0 3.3-2.7 6-6 6z"/> <path class="st11" d="m2093.6 1729.6c-0.6 1.7-1.2 3.4-1.9 5.1s-1.5 3.4-2.3 5.1h-178.9c-0.8-1.7-1.6-3.4-2.3-5.1s-1.3-3.4-1.9-5.1h187.3z"/> <polygon class="st2" points="1887.1 2575.3 1706.6 2659.5 1427.6 2789.6 1386.4 2808.8 1373.7 2814.7 1346 2827.6 1306.6 2743.1 1265 2654 990.6 2065.4 1086.4 2020.7 1470.4 1841.6 1531.7 1813.1 1538.1 1826.8 1575.8 1907.8 1613.5 1988.7 1651.3 2069.6 1689 2150.5 1698.7 2171.3 1730.5 2239.5 1760.3 2303.3 1818.1 2427.3"/> <path class="st7" d="m1913.9 2382.6-95.8 44.7-390.5 182.1-41.1 19.2-13.6 6.3-6.5-13.9-279.9-600.3-69-148 378.3-176.4 0.9-0.4c20.8 18.6 37.7 40.8 50.2 65.2 8.3 16.2 14.6 33.5 18.8 51.4 2.1 9 3.7 18.2 4.6 27.5l1.9 17.7 161.8-75.5 4.3 9.3 158 338.8 3.4 7.3 15.8 33.8 7.1 15.2 24.7 53 66.6 143z"/> <path class="st2" d="m1633.9 1782.1-161.8 75.5-1.9-17.7c-2.9-27.8-10.9-54.5-23.4-78.9s-29.4-46.6-50.2-65.2l237.3 86.3z"/> <path class="st3" d="m1133.8 1922.9c-2.3 0-4.4-1.3-5.4-3.5-1.4-3-0.1-6.6 2.9-8l248.2-115.7c3-1.4 6.6-0.1 8 2.9s0.1 6.6-2.9 8l-248.2 115.7c-0.9 0.4-1.8 0.6-2.6 0.6z"/> <path class="st3" d="m1171.5 2003.8c-2.3 0-4.4-1.3-5.4-3.5-1.4-3-0.1-6.6 2.9-8l248.2-115.7c3-1.4 6.6-0.1 8 2.9s0.1 6.6-2.9 8l-248.3 115.7c-0.8 0.4-1.7 0.6-2.5 0.6z"/> <path class="st3" d="m1211.5 2083.7c-2.3 0-4.4-1.3-5.4-3.5-1.4-3-0.1-6.6 2.9-8l379.3-176.9c3-1.4 6.6-0.1 8 2.9s0.1 6.6-2.9 8l-379.4 176.9c-0.8 0.4-1.7 0.6-2.5 0.6z"/> <path class="st3" d="m1249.2 2164.6c-2.3 0-4.4-1.3-5.4-3.5-1.4-3-0.1-6.6 2.9-8l379.3-176.9c3-1.4 6.6-0.1 8 2.9s0.1 6.6-2.9 8l-379.4 176.9c-0.8 0.4-1.7 0.6-2.5 0.6z"/> <path class="st3" d="m1286.9 2245.5c-2.3 0-4.4-1.3-5.4-3.5-1.4-3-0.1-6.6 2.9-8l379.3-176.9c3-1.4 6.6-0.1 8 2.9s0.1 6.6-2.9 8l-379.3 176.9c-0.9 0.4-1.7 0.6-2.6 0.6z"/> <path class="st3" d="m1324.6 2326.4c-2.3 0-4.4-1.3-5.4-3.5-1.4-3-0.1-6.6 2.9-8l379.3-176.9c3-1.4 6.6-0.1 8 2.9s0.1 6.6-2.9 8l-379.3 176.9c-0.9 0.4-1.7 0.6-2.6 0.6z"/> <path class="st8" d="m1465.6 1812.4v0.7l-27.5-23.8c-31.3-27-74.5-35.4-113.6-22-105 36-304.5 104.4-307.1 105.3l378.3-176.4 0.9-0.4c20.8 18.6 37.7 40.8 50.2 65.2 8.4 16.2 14.7 33.5 18.8 51.4z"/> <polygon class="st8" points="1472.1 1857.6 1642.8 1801.2 1633.9 1782.1"/> <polygon class="st12" points="1086.4 2020.7 1357.5 2822.3 1386.4 2808.8 1386.4 2628.6 1372.8 2634.9"/> <polygon class="st2" points="2642.7 1699.7 2422.8 2171.3 2192.4 2171.3 2369.6 1791.3 2437 1646.8 2453.4 1611.4 2614.6 1686.6"/> <polygon class="st8" points="2614.6 1686.6 2406.9 2133.5 2401.1 2145.9 2192.4 2171.3 2201.1 2152.6 2234.8 2080.4 2268.5 2008.1 2302.2 1935.8 2335.9 1863.6 2369.6 1791.3 2403.3 1719 2437 1646.8 2453.4 1611.4"/> <polygon class="st7" points="2474.9 1621.5 2456 1662.3 2393.8 1796 2293 2012.9 2219.3 2171.3 2192.4 2171.3 2237.3 2074.9 2268.5 2008.1 2302.2 1935.8 2333.4 1869 2367.1 1796.8 2400.8 1724.5 2453.4 1611.4"/> <path class="st3" d="m2507.7 1679.7c-1 2.2-3.2 3.5-5.4 3.5-0.9 0-1.7-0.2-2.5-0.6l-43.7-20.4-21.5-10 5-10.8 21.5 10 43.7 20.4c3 1.4 4.3 4.9 2.9 7.9z"/> <path class="st3" d="m2442.4 1737.3c-1 2.2-3.2 3.5-5.4 3.5-0.8 0-1.7-0.2-2.5-0.6l-12.1-5.6-21.6-10.1 5-10.8 21.6 10.1 12.1 5.6c3 1.3 4.3 4.9 2.9 7.9z"/> <path class="st3" d="m2440.3 1824.3c-1 2.2-3.2 3.5-5.4 3.5-0.8 0-1.7-0.2-2.5-0.6l-43.6-20.3-21.7-10.1 5-10.8 21.7 10.1 43.6 20.3c3 1.3 4.3 4.9 2.9 7.9z"/> <path class="st3" d="m2375 1881.8c-1 2.2-3.2 3.5-5.4 3.5-0.9 0-1.7-0.2-2.5-0.6l-11.9-5.6-21.8-10.2 5-10.8 21.8 10.2 11.9 5.6c3 1.4 4.3 4.9 2.9 7.9z"/> <path class="st3" d="m2372.9 1968.8c-1 2.2-3.2 3.5-5.4 3.5-0.8 0-1.7-0.2-2.5-0.6l-43.4-20.2-21.9-10.2 5-10.8 21.9 10.2 43.4 20.2c3 1.3 4.3 4.9 2.9 7.9z"/> <path class="st3" d="m2307.6 2026.3c-1 2.2-3.2 3.5-5.4 3.5-0.8 0-1.7-0.2-2.5-0.6l-11.7-5.5-22-10.2 5-10.8 21.9 10.2 11.8 5.5c3 1.4 4.3 4.9 2.9 7.9z"/> <path class="st3" d="m2305.5 2113.3c-1 2.2-3.2 3.5-5.4 3.5-0.9 0-1.7-0.2-2.5-0.6l-43.2-20.1-22-10.3 5-10.8 22 10.3 43.2 20.2c3 1.3 4.3 4.8 2.9 7.8z"/> <path class="st13" d="m2762.5 1863.9-32.7 74.6c-3.6-2.6-7.3-5-11.2-7.2-11.8-6.8-24.6-11.6-37.9-14.3l32.7-74.6c4.8-1.4 9.7-1.9 14.4-1.6 14.5 1 27.9 9.5 34.7 23.1z"/> <path class="st14" d="m2749.5 1860.9-30.8 70.3c-11.8-6.8-24.6-11.6-37.9-14.3l32.7-74.6c4.8-1.4 9.7-1.9 14.4-1.6 9 3.9 16.9 10.8 21.6 20.2z"/> <path class="st12" d="m2613.6 2171.3h-81.9l92.8-211.9 19.4-44.2c9.2-0.9 18.4-0.8 27.4 0.3 3.1 0.4 6.3 0.9 9.4 1.5 17.7 3.5 34.5 10.9 49.1 21.5 9.9 7.2 18.8 15.8 26.3 25.8l-142.6 325.4v-118.4z"/> <path class="st2" d="m2613.6 2219.1v-47.9h-81.9l92.8-211.9 19.4-44.2c9.2-0.9 18.4-0.8 27.4 0.3 10.8 4 21.1 9.4 30.5 16.3 9.9 7.2 18.8 15.8 26.3 25.8l-114.5 261.6z"/> <path class="st14" d="m2736.7 2008.6-9.6 21.9-9 20.4c-28-32.7-69.3-50.8-112.2-49.2l18.6-42.4c1.8-0.1 3.5-0.1 5.3-0.1 10.5 0 20.9 1.2 30.9 3.4 17.6 4 34.3 11.3 49.1 21.5 9.9 7 19 15.1 26.9 24.5z"/> <path class="st15" d="m2736.7 2008.6-9.6 21.9-9 20.4c-6.6-7.7-13.9-14.6-21.9-20.6l18.6-42.4c8 6 15.3 12.9 21.9 20.7z"/> <path class="st14" d="m2709.4 2070.8-18.6 42.4c-27.9-32.7-69.3-50.8-112.2-49.2l18.6-42.4c1.8-0.1 3.5-0.1 5.3-0.1 41 0.1 80.2 18 106.9 49.3z"/> <path class="st15" d="m2709.4 2070.8-18.6 42.4c-6.6-7.7-13.9-14.6-21.9-20.6l18.6-42.4c8 6 15.4 12.9 21.9 20.6z"/> <path class="st13" d="m2771.1 2023.6-34.4-15.1-9.6 21.9 34.4 15.1-80.5 183.8c23.3-14.3 41.6-35.3 52.6-60.3l49.9-114 9.6-21.9-22-9.5z"/> <path class="st9" d="m2734.4 2892.6c0 10.7-1.8 20.9-5.2 30.5-3.8 10.9-9.7 20.8-17.1 29.3-16.7 19.3-41.4 31.5-69 31.5h-1286.2c-25.2 0-48-10.2-64.5-26.7-1.5-1.5-3-3.1-4.4-4.8-5.5-6.4-10.2-13.5-13.8-21.2-5.5-11.7-8.5-24.8-8.5-38.6h1468.7z"/> <polygon class="st11" points="2180.9 2931.1 1819.1 2931.1 1778.6 2892.6 2221.4 2892.6"/> <rect class="st4" x="1386.4" y="2171.3" width="1227.1" height="721.3"/> <rect class="st3" x="1409.6" y="2239.5" width="1180.9" height="653.1"/> <rect class="st13" x="1437.9" y="2279.3" width="1124.3" height="613.3"/> <rect class="st8" x="1978.4" y="2675.3" width="44.2" height="167.1"/> <rect class="st8" x="2133.1" y="2531.9" width="44.2" height="309.5"/> <rect class="st8" x="2287.8" y="2566" width="44.2" height="274.5"/> <rect class="st8" x="2442.5" y="2382.1" width="44.2" height="457.5"/> <path class="st11" d="m2712.1 2952.4c-16.7 19.3-41.4 31.5-69 31.5h-1286.2c-25.2 0-48-10.2-64.5-26.7-1.5-1.5-3-3.1-4.4-4.8h1424.1z"/> <path class="st8" d="m1763.2 2491.5c0 74.8-60.6 135.4-135.4 135.4-35.4 0-67.7-13.6-91.8-35.9-11.8-10.9-21.6-23.8-28.9-38.2-9.4-18.4-14.6-39.2-14.6-61.3 0-74.8 60.6-135.4 135.4-135.4v135.4h135.3z"/> <path class="st1" d="m1783.5 2471.8h-135.4v-135.4c74.8 0 135.4 60.6 135.4 135.4z"/> <line class="st1" x1="1492.4" x2="1813.9" y1="2755.7" y2="2755.7"/> <path class="st1" d="m1813.9 2761.7h-321.4c-3.3 0-6-2.7-6-6s2.7-6 6-6h321.4c3.3 0 6 2.7 6 6s-2.7 6-6 6z"/> <line class="st1" x1="1492.4" x2="1887.1" y1="2820" y2="2820"/> <path class="st1" d="m1887.1 2826h-394.7c-3.3 0-6-2.7-6-6s2.7-6 6-6h394.7c3.3 0 6 2.7 6 6s-2.7 6-6 6z"/> <path class="st4" d="m2464.6 2313c-8.6 0-15.6 7-15.6 15.6 0 2.6 0.6 5 1.8 7.2l-136.1 161.8c-1.5-0.5-3.1-0.7-4.7-0.7-5.3 0-10 2.6-12.8 6.7l-126.6-27.9c-1.3-7.3-7.7-12.9-15.4-12.9-8.6 0-15.6 7-15.6 15.6 0 1.9 0.4 3.7 1 5.4l-133.6 123.7c-2-0.9-4.2-1.4-6.5-1.4-8.6 0-15.6 7-15.6 15.6s7 15.6 15.6 15.6 15.6-7 15.6-15.6c0-1.9-0.4-3.7-1-5.4l133.6-123.8c2 0.9 4.2 1.4 6.5 1.4 5.3 0 10-2.6 12.8-6.7l126.6 27.9c1.3 7.3 7.7 12.9 15.4 12.9 8.6 0 15.6-7 15.6-15.6 0-2.6-0.6-5-1.8-7.2l136.1-161.8c1.5 0.5 3.1 0.7 4.7 0.7 8.6 0 15.6-7 15.6-15.6s-7-15.5-15.6-15.5z"/> <circle class="st1" cx="2155.2" cy="2478.4" r="15.6"/> <circle class="st1" cx="2309.9" cy="2512.5" r="15.6"/> <circle class="st1" cx="2464.6" cy="2328.6" r="15.6"/> <circle class="st1" cx="2000.5" cy="2621.7" r="15.6"/> <polygon class="st8" points="1386.4 2171.3 1386.4 2628.6 1372.8 2634.9 1357.5 2602 1357.5 2228.5"/> <polygon class="st5" points="1357.5 2602 1357.5 2822.3 1386.4 2808.8 1386.4 2628.6 1372.8 2634.9"/> <path d="m3284.7 2997.4c0 7.5-6 13.5-13.5 13.5h-2542.4c-7.5 0-13.5-6-13.5-13.5s6-13.5 13.5-13.5h2542.4c7.5 0 13.5 6 13.5 13.5z"/> </svg>