<?xml version="1.0" encoding="utf-8"?>
<!-- Generator: Adobe Illustrator 16.0.0, SVG Export Plug-In . SVG Version: 6.00 Build 0)  -->
<!DOCTYPE svg PUBLIC "-//W3C//DTD SVG 1.1//EN" "http://www.w3.org/Graphics/SVG/1.1/DTD/svg11.dtd">
<svg version="1.1" id="Layer_1" xmlns="http://www.w3.org/2000/svg" xmlns:xlink="http://www.w3.org/1999/xlink" x="0px" y="0px"
	 width="100px" height="100px" viewBox="0 0 100 100" enable-background="new 0 0 100 100" xml:space="preserve">
<radialGradient id="SVGID_1_" cx="994.209" cy="-6207.373" r="832.5905" gradientTransform="matrix(0.0535 0 0 -0.0535 -6.9096 -281.419)" gradientUnits="userSpaceOnUse">
	<stop  offset="0" style="stop-color:#FFFFFF"/>
	<stop  offset="0.5" style="stop-color:#CBCBC7"/>
	<stop  offset="0.6244" style="stop-color:#B1B1AB"/>
	<stop  offset="1" style="stop-color:#979890"/>
</radialGradient>
<path fill="url(#SVGID_1_)" d="M72.795,48.829c0,12.776-10.357,23.135-23.135,23.135S26.525,61.605,26.525,48.829
	c0-12.777,10.358-23.135,23.135-23.135S72.795,36.052,72.795,48.829z"/>
<path fill="#FF0000" d="M49.66,25.694c-2.533,0-4.969,0.407-7.25,1.159c-0.339,0.643-0.701,1.389-0.945,1.954
	c-0.051,0.118-0.107,0.249-0.126,0.29c-0.023,0.052-0.083,0.101-0.194,0.16c-0.088,0.047-0.253,0.135-0.367,0.195
	s-0.26,0.144-0.326,0.185c-0.065,0.042-0.128,0.076-0.139,0.076s-0.102,0.049-0.203,0.109c-0.101,0.061-0.296,0.175-0.435,0.256
	c-0.231,0.134-0.472,0.282-0.964,0.59c-0.249,0.155-1.44,0.945-1.637,1.085c-0.087,0.062-0.28,0.202-0.428,0.311
	c-0.148,0.109-0.321,0.232-0.383,0.275c-0.063,0.042-0.171,0.123-0.241,0.179c-0.07,0.056-0.217,0.17-0.325,0.253
	s-0.329,0.257-0.49,0.387c-0.16,0.129-0.359,0.288-0.441,0.353c-0.082,0.064-0.169,0.136-0.193,0.16
	c-0.049,0.047-0.12,0.062-0.4,0.083c-0.104,0.008-0.234,0.019-0.29,0.024c-0.056,0.005-0.18,0.016-0.277,0.023
	c-0.097,0.007-0.267,0.024-0.378,0.039s-0.267,0.032-0.347,0.04c-0.08,0.007-0.261,0.031-0.403,0.052
	c-0.142,0.021-0.314,0.043-0.383,0.05c-0.03,0.003-0.107,0.014-0.202,0.028c-3.242,3.884-5.234,8.846-5.36,14.27
	c0.129,0.11,0.25,0.211,0.323,0.27c0.061,0.049,0.221,0.179,0.357,0.29c0.136,0.11,0.271,0.218,0.302,0.239
	c0.03,0.021,0.147,0.111,0.261,0.201c0.114,0.09,0.277,0.212,0.362,0.272c0.297,0.209,0.282,0.182,0.369,0.685
	c0.016,0.09,0.044,0.237,0.063,0.328c0.019,0.09,0.052,0.26,0.075,0.377c0.13,0.664,0.176,0.875,0.319,1.474
	c0.274,1.151,0.648,2.438,1.037,3.563c0.055,0.159,0.117,0.341,0.138,0.402c0.04,0.12,0.135,0.381,0.338,0.92
	c0.068,0.18,0.142,0.379,0.164,0.441c0.022,0.062,0.057,0.138,0.077,0.168c0.033,0.052,0.028,0.084-0.054,0.341
	c-0.144,0.45-0.159,0.497-0.229,0.737c-0.037,0.125-0.078,0.255-0.09,0.289c-0.013,0.035-0.044,0.143-0.07,0.24
	c-0.026,0.097-0.078,0.289-0.116,0.428s-0.079,0.285-0.089,0.327c-0.011,0.042-0.044,0.167-0.075,0.277
	c-0.031,0.11-0.062,0.224-0.068,0.252c-0.006,0.026-0.014,0.057-0.018,0.071c2.833,4.636,7.253,8.196,12.503,9.928
	c0.007-0.004,0.011-0.007,0.018-0.012c0.198-0.133,0.404-0.27,0.458-0.304c0.104-0.067,0.283-0.192,0.495-0.347
	c0.071-0.052,0.225-0.162,0.34-0.244c0.116-0.082,0.34-0.246,0.5-0.365c0.159-0.118,0.323-0.236,0.365-0.262
	c0.042-0.027,0.082-0.057,0.089-0.066c0.014-0.02,0.296-0.236,0.419-0.323c0.087-0.061,0.065-0.061,0.991,0.021
	c1.404,0.123,3.168,0.172,4.703,0.129c1.124-0.031,1.641-0.061,2.74-0.152l0.578-0.047l0.088,0.06
	c0.109,0.073,0.261,0.186,0.633,0.466c0.259,0.193,0.809,0.594,1.092,0.791c0.283,0.199,0.686,0.466,0.986,0.658
	c5.244-1.728,9.661-5.281,12.496-9.908c-0.064-0.252-0.176-0.685-0.194-0.748c-0.013-0.041-0.04-0.138-0.063-0.214
	s-0.074-0.257-0.117-0.403c-0.042-0.145-0.087-0.304-0.099-0.352c-0.012-0.049-0.047-0.168-0.076-0.266
	c-0.031-0.096-0.07-0.227-0.089-0.289c-0.029-0.102-0.081-0.26-0.175-0.531c-0.029-0.084-0.023-0.107,0.068-0.327
	c0.055-0.13,0.139-0.345,0.185-0.477c0.117-0.333,0.21-0.583,0.238-0.642c0.014-0.028,0.075-0.198,0.136-0.379
	c0.063-0.18,0.131-0.378,0.152-0.439c0.049-0.141,0.254-0.792,0.377-1.197c0.05-0.166,0.12-0.398,0.156-0.516
	c0.037-0.118,0.081-0.277,0.098-0.354c0.018-0.076,0.078-0.308,0.137-0.516c0.059-0.207,0.115-0.422,0.127-0.479
	c0.012-0.055,0.061-0.266,0.109-0.466c0.088-0.36,0.152-0.651,0.232-1.046c0.023-0.11,0.057-0.274,0.076-0.365
	c0.047-0.215,0.153-0.811,0.174-0.966c0.02-0.137,0.074-0.201,0.315-0.363c0.076-0.051,0.156-0.11,0.178-0.131
	s0.093-0.078,0.159-0.126c0.066-0.049,0.173-0.131,0.237-0.184c0.065-0.052,0.13-0.104,0.144-0.114
	c0.104-0.078,0.42-0.33,0.493-0.394c0.05-0.042,0.146-0.122,0.214-0.178c0.055-0.046,0.133-0.113,0.195-0.167
	c-0.129-5.417-2.119-10.374-5.356-14.254c-0.019-0.003-0.039-0.006-0.054-0.008c-0.042-0.007-0.133-0.019-0.202-0.028
	s-0.231-0.031-0.362-0.05s-0.246-0.029-0.257-0.023c-0.011,0.007-0.026,0-0.036-0.014c-0.008-0.014-0.025-0.02-0.039-0.012
	c-0.013,0.008-0.105,0.003-0.206-0.011c-0.249-0.035-0.771-0.087-1.177-0.117c-0.282-0.021-0.241,0.004-0.965-0.578
	c-0.172-0.138-0.423-0.337-0.558-0.44c-0.136-0.104-0.288-0.223-0.341-0.265c-0.307-0.244-1.348-0.976-1.959-1.378
	c-0.626-0.412-1.768-1.109-2.235-1.366c-0.069-0.039-0.245-0.136-0.39-0.216c-0.146-0.081-0.348-0.19-0.45-0.244
	c-0.167-0.089-0.189-0.11-0.235-0.223c-0.059-0.141-0.093-0.218-0.259-0.59c-0.155-0.349-0.507-1.078-0.765-1.59
	C54.654,26.105,52.205,25.694,49.66,25.694L49.66,25.694z M41.353,29.181l0.622,0.016c0.54,0.014,1.418,0.058,2.083,0.103
	c0.373,0.025,1.344,0.124,1.725,0.175c0.048,0.006,0.185,0.023,0.302,0.038c0.256,0.032,0.503,0.066,0.743,0.103
	c0.097,0.015,0.25,0.038,0.34,0.051c0.09,0.013,0.226,0.034,0.302,0.048s0.213,0.036,0.304,0.049
	c0.091,0.014,0.25,0.042,0.353,0.065c0.103,0.022,0.283,0.056,0.4,0.075c0.118,0.02,0.35,0.065,0.517,0.101
	c0.166,0.036,0.358,0.076,0.427,0.089c0.069,0.014,0.132,0.033,0.14,0.042c0.019,0.023-0.02,5.563-0.045,6.515l-0.019,0.703
	l-0.164,0.101c-0.09,0.056-0.334,0.205-0.542,0.333c-0.82,0.502-2.33,1.485-3.107,2.021c-0.682,0.47-0.923,0.639-1.501,1.051
	c-1.241,0.884-2.596,1.9-3.619,2.714c-0.222,0.177-0.411,0.32-0.42,0.319c-0.009-0.001-0.164-0.048-0.344-0.103
	s-0.52-0.155-0.755-0.223s-0.598-0.174-0.806-0.235c-0.668-0.198-1.196-0.349-1.688-0.484c-0.244-0.067-0.495-0.137-0.932-0.261
	c-0.552-0.156-0.637-0.18-1.096-0.306c-0.256-0.07-0.54-0.149-0.629-0.175c-0.09-0.025-0.277-0.077-0.416-0.113
	c-0.466-0.123-0.528-0.14-0.646-0.177c-0.064-0.021-0.134-0.037-0.156-0.037s-0.045-0.01-0.053-0.022
	c-0.014-0.022,0.027-0.383,0.099-0.872c0.022-0.152,0.05-0.345,0.062-0.428c0.036-0.259,0.104-0.659,0.16-0.944
	c0.021-0.104,0.058-0.297,0.081-0.428c0.024-0.131,0.059-0.298,0.077-0.369c0.019-0.071,0.035-0.156,0.035-0.188
	c0-0.031,0.011-0.092,0.024-0.134c0.013-0.042,0.037-0.145,0.053-0.229c0.044-0.226,0.096-0.46,0.14-0.629
	c0.059-0.226,0.077-0.302,0.148-0.604c0.036-0.152,0.077-0.311,0.092-0.353c0.015-0.042,0.037-0.115,0.048-0.164
	c0.061-0.257,0.081-0.332,0.137-0.517c0.033-0.111,0.08-0.27,0.103-0.353s0.057-0.188,0.077-0.234
	c0.02-0.045,0.036-0.096,0.036-0.112c0-0.03,0.294-0.929,0.414-1.266c0.035-0.1,0.089-0.198,0.124-0.227
	c0.724-0.594,1.785-1.413,2.346-1.809c0.227-0.16,1.569-1.06,1.763-1.182c0.069-0.043,0.182-0.114,0.251-0.159
	c0.1-0.064,0.845-0.509,1.083-0.648c0.291-0.168,0.682-0.385,1.104-0.61L41.353,29.181L41.353,29.181z M57.972,29.183l0.271,0.143
	c0.258,0.135,0.506,0.273,0.9,0.5c0.098,0.056,0.223,0.125,0.277,0.155c0.41,0.217,2.187,1.354,2.707,1.733
	c0.09,0.065,0.209,0.15,0.265,0.188c0.349,0.236,1.118,0.82,1.854,1.408c0.596,0.476,0.564,0.438,0.691,0.839
	c0.033,0.104,0.07,0.212,0.083,0.239c0.04,0.09,0.255,0.779,0.255,0.819c0,0.021,0.01,0.05,0.021,0.063
	c0.02,0.02,0.205,0.657,0.309,1.057c0.014,0.055,0.037,0.135,0.052,0.176c0.038,0.113,0.183,0.709,0.22,0.907
	c0.01,0.056,0.027,0.114,0.036,0.129c0.016,0.025,0.071,0.258,0.118,0.5c0.012,0.056,0.033,0.163,0.049,0.239
	s0.038,0.189,0.049,0.252c0.012,0.063,0.044,0.227,0.072,0.365s0.07,0.359,0.094,0.491c0.024,0.131,0.059,0.309,0.078,0.395
	s0.035,0.191,0.035,0.233s0.012,0.125,0.025,0.184c0.013,0.059,0.042,0.238,0.064,0.397c0.021,0.159,0.05,0.357,0.063,0.44
	c0.023,0.167,0.065,0.471,0.087,0.635c0.013,0.1,0.009,0.107-0.056,0.123c-0.12,0.028-0.314,0.079-0.516,0.135
	c-0.107,0.03-0.215,0.059-0.24,0.064c-0.056,0.012-0.289,0.073-0.465,0.123c-0.484,0.137-0.688,0.194-0.877,0.244
	c-0.117,0.031-0.281,0.076-0.365,0.102c-0.082,0.025-0.344,0.098-0.578,0.162c-0.236,0.064-0.52,0.144-0.63,0.176
	c-0.11,0.032-0.593,0.168-1.07,0.302c-0.478,0.134-0.972,0.276-1.096,0.316c-0.125,0.04-0.368,0.111-0.542,0.159
	c-0.173,0.048-0.473,0.134-0.667,0.191s-0.37,0.11-0.39,0.116c-0.021,0.006-0.141-0.071-0.266-0.171
	c-2.504-2.01-5.968-4.445-8.581-6.032l-0.571-0.347l-0.001-3.605l-0.001-3.604l0.145-0.027c0.08-0.015,0.225-0.044,0.321-0.067
	c0.097-0.022,0.323-0.068,0.504-0.102c0.181-0.033,0.418-0.078,0.528-0.1c0.111-0.022,0.27-0.05,0.354-0.063
	c0.082-0.013,0.219-0.035,0.302-0.05c0.329-0.058,0.701-0.112,1.297-0.187c0.173-0.022,0.389-0.052,0.479-0.065
	c0.193-0.03,1.109-0.12,1.397-0.139c0.111-0.007,0.253-0.019,0.315-0.025c0.062-0.007,0.216-0.018,0.34-0.025
	c0.124-0.007,0.3-0.019,0.39-0.025c0.288-0.021,0.703-0.037,1.291-0.052L57.972,29.183L57.972,29.183z M32.63,41.879
	c0.01,0,0.143,0.035,0.295,0.078s0.322,0.09,0.378,0.104c0.055,0.014,0.149,0.042,0.208,0.063c0.059,0.02,0.143,0.042,0.187,0.049
	s0.108,0.024,0.144,0.039c0.036,0.014,0.167,0.052,0.292,0.083c0.125,0.031,0.283,0.074,0.353,0.096
	c0.104,0.033,0.573,0.167,0.944,0.271c0.048,0.013,0.224,0.065,0.391,0.115c0.166,0.049,0.324,0.094,0.351,0.099
	c0.026,0.005,0.117,0.032,0.201,0.059c0.084,0.027,0.215,0.066,0.291,0.086c0.183,0.047,1.036,0.302,1.322,0.394
	c0.125,0.04,0.402,0.125,0.617,0.187c0.214,0.063,0.583,0.172,0.818,0.244c0.236,0.072,0.485,0.147,0.554,0.167
	s0.135,0.046,0.145,0.055c0.01,0.009,0.093,0.305,0.184,0.658c0.091,0.353,0.21,0.8,0.267,0.994s0.133,0.466,0.172,0.604
	c0.115,0.415,0.375,1.313,0.482,1.662c0.055,0.18,0.134,0.441,0.176,0.58c0.042,0.138,0.146,0.467,0.229,0.73
	s0.174,0.552,0.203,0.643c0.266,0.839,0.807,2.425,1.163,3.413c0.279,0.771,0.562,1.539,0.605,1.64
	c0.036,0.085,0.03,0.096-0.703,1.104c-0.09,0.125-0.282,0.392-0.425,0.592c-0.415,0.582-0.64,0.896-0.885,1.236
	c-0.126,0.176-0.288,0.402-0.36,0.504c-0.072,0.103-0.246,0.346-0.384,0.539c-0.139,0.194-0.407,0.574-0.597,0.844
	c-0.189,0.271-0.393,0.56-0.454,0.643c-0.22,0.302-0.724,1.014-0.909,1.284c-0.223,0.326-0.233,0.339-0.283,0.321
	c-0.078-0.026-0.535-0.209-0.612-0.244c-0.044-0.02-0.194-0.084-0.332-0.142c-0.139-0.058-0.28-0.12-0.315-0.14
	c-0.035-0.019-0.171-0.078-0.302-0.133c-0.132-0.055-0.307-0.133-0.39-0.174c-0.083-0.042-0.225-0.106-0.315-0.145
	c-0.09-0.037-0.226-0.1-0.302-0.139s-0.229-0.112-0.34-0.162s-0.23-0.107-0.265-0.128c-0.035-0.021-0.125-0.067-0.202-0.103
	s-0.195-0.093-0.264-0.129c-0.069-0.037-0.273-0.143-0.454-0.234c-0.424-0.219-0.896-0.473-0.934-0.505
	c-0.017-0.014-0.101-0.059-0.187-0.101c-0.087-0.042-0.218-0.115-0.292-0.162s-0.188-0.115-0.255-0.15
	c-0.21-0.113-0.393-0.219-0.561-0.326c-0.09-0.059-0.221-0.137-0.29-0.177c-0.069-0.04-0.206-0.124-0.302-0.188
	c-0.199-0.13-0.204-0.134-0.407-0.252c-0.081-0.047-0.192-0.121-0.248-0.164c-0.056-0.044-0.132-0.099-0.171-0.124
	c-0.039-0.024-0.081-0.069-0.093-0.1c-0.013-0.031-0.064-0.151-0.114-0.27c-0.05-0.117-0.135-0.341-0.188-0.496
	c-0.054-0.156-0.105-0.295-0.114-0.311c-0.052-0.084-0.603-1.722-0.707-2.102c-0.019-0.068-0.063-0.21-0.097-0.314
	s-0.084-0.275-0.112-0.379c-0.027-0.104-0.062-0.223-0.076-0.264c-0.046-0.133-0.28-1.035-0.28-1.08
	c0-0.024-0.028-0.143-0.062-0.264c-0.125-0.447-0.165-0.605-0.165-0.658c0-0.031-0.017-0.125-0.037-0.211
	c-0.053-0.223-0.151-0.697-0.202-0.974c-0.006-0.034-0.024-0.136-0.041-0.227c-0.017-0.09-0.045-0.235-0.064-0.323
	c-0.072-0.331-0.078-0.31,0.501-1.629c0.403-0.919,1.122-2.387,1.483-3.033c0.098-0.175,0.218-0.391,0.267-0.481
	c0.389-0.72,0.972-1.699,1.454-2.443C32.549,41.976,32.614,41.879,32.63,41.879L32.63,41.879z M66.684,41.893
	c0.006,0,0.01,0.001,0.012,0.002c0.016,0.007,0.074,0.083,0.129,0.168c0.281,0.443,0.651,1.029,0.732,1.163
	c0.345,0.563,0.76,1.277,0.975,1.675c0.139,0.256,0.26,0.477,0.27,0.491c0.064,0.087,0.803,1.544,1.047,2.065
	c0.332,0.708,0.612,1.343,0.887,2.013l0.113,0.274l-0.043,0.255c-0.037,0.222-0.248,1.306-0.316,1.627
	c-0.092,0.426-0.137,0.618-0.188,0.806c-0.031,0.117-0.082,0.322-0.113,0.453c-0.086,0.366-0.296,1.127-0.439,1.6
	c-0.152,0.496-0.395,1.258-0.422,1.322c-0.015,0.035-0.074,0.21-0.135,0.391c-0.059,0.18-0.148,0.435-0.198,0.566
	c-0.05,0.131-0.12,0.321-0.155,0.422c-0.035,0.1-0.125,0.326-0.197,0.501c-0.154,0.365-0.094,0.308-0.742,0.718
	c-0.584,0.367-0.59,0.371-0.633,0.391c-0.021,0.01-0.094,0.053-0.164,0.098c-0.182,0.119-0.695,0.414-0.718,0.414
	c-0.011,0-0.024,0.01-0.028,0.02c-0.01,0.021-0.189,0.123-0.399,0.227c-0.076,0.037-0.144,0.076-0.151,0.085
	c-0.014,0.019-0.523,0.294-1.007,0.544c-0.173,0.09-0.343,0.179-0.378,0.197c-0.089,0.049-1.353,0.652-1.448,0.691
	c-0.027,0.012-0.183,0.084-0.344,0.161s-0.302,0.142-0.312,0.142c-0.018,0-0.08,0.026-0.383,0.167
	c-0.102,0.047-0.248,0.108-0.328,0.138s-0.205,0.08-0.28,0.114c-0.074,0.033-0.25,0.106-0.39,0.163
	c-0.141,0.056-0.268,0.107-0.281,0.113c-0.015,0.006-0.18-0.208-0.366-0.475c-0.472-0.674-1.241-1.763-1.722-2.438
	c-0.223-0.312-0.592-0.831-0.82-1.153s-0.483-0.68-0.565-0.793s-0.27-0.376-0.417-0.584s-0.446-0.626-0.664-0.93
	c-0.218-0.303-0.405-0.569-0.416-0.592c-0.014-0.026,0.024-0.163,0.115-0.405c0.075-0.2,0.215-0.581,0.31-0.844
	s0.248-0.688,0.341-0.944c0.23-0.64,0.912-2.649,1.015-2.997c0.015-0.048,0.079-0.252,0.144-0.453
	c0.064-0.201,0.138-0.433,0.163-0.517c0.024-0.083,0.069-0.225,0.097-0.314c0.255-0.828,0.58-1.935,0.71-2.418
	c0.024-0.09,0.095-0.339,0.158-0.554c0.063-0.214,0.179-0.645,0.258-0.957c0.079-0.312,0.153-0.583,0.164-0.604
	s0.086-0.056,0.167-0.08c0.08-0.024,0.277-0.086,0.437-0.137c0.159-0.05,0.323-0.1,0.365-0.111c0.115-0.03,1.083-0.319,1.297-0.387
	c0.187-0.059,1.133-0.336,1.574-0.461c0.124-0.035,0.294-0.084,0.378-0.109c0.083-0.025,0.258-0.076,0.391-0.113
	c0.131-0.038,0.392-0.112,0.578-0.167c0.582-0.168,0.607-0.176,0.842-0.235c0.127-0.032,0.259-0.069,0.295-0.083
	c0.035-0.014,0.1-0.032,0.144-0.039s0.128-0.029,0.188-0.049c0.06-0.021,0.152-0.049,0.208-0.063
	c0.055-0.014,0.224-0.061,0.373-0.103C66.524,41.922,66.645,41.895,66.684,41.893z M55.51,55.184l0.18,0.244
	c0.1,0.134,0.316,0.434,0.482,0.665s0.377,0.52,0.467,0.64c0.09,0.121,0.219,0.299,0.284,0.396c0.065,0.097,0.216,0.307,0.334,0.466
	s0.257,0.352,0.308,0.427c0.052,0.076,0.195,0.275,0.32,0.443s0.419,0.576,0.654,0.906c0.236,0.33,0.496,0.693,0.58,0.807
	c0.082,0.114,0.219,0.301,0.302,0.416c0.233,0.322,0.854,1.199,0.984,1.391l0.116,0.17l-0.102,0.135
	c-0.09,0.119-0.662,0.813-0.801,0.973c-0.03,0.034-0.172,0.199-0.313,0.365s-0.265,0.308-0.272,0.314
	c-0.009,0.007-0.09,0.098-0.18,0.201s-0.17,0.195-0.178,0.201c-0.008,0.008-0.119,0.133-0.248,0.277
	c-1.021,1.152-2.736,2.836-4.09,4.014l-0.172,0.15l-0.281,0.02c-0.154,0.011-0.467,0.032-0.694,0.047
	c-0.227,0.016-0.421,0.032-0.433,0.039c-0.012,0.008-0.354,0.03-0.759,0.051c-0.694,0.035-2.895,0.064-3.42,0.047
	c-1.007-0.033-1.733-0.068-1.914-0.09c-0.118-0.014-0.373-0.035-0.567-0.049c-1.004-0.065-0.959-0.059-1.082-0.159
	c-0.121-0.099-0.362-0.313-0.681-0.605c-0.111-0.101-0.253-0.226-0.315-0.278c-0.271-0.224-1.551-1.476-2.267-2.217
	c-0.968-1.001-2.972-3.311-2.972-3.426c0-0.013,0.061-0.108,0.136-0.213c0.074-0.104,0.202-0.285,0.282-0.402
	s0.277-0.396,0.436-0.617s0.331-0.465,0.383-0.541s0.203-0.286,0.335-0.467c0.132-0.18,0.328-0.451,0.434-0.604
	s0.307-0.434,0.447-0.625s0.327-0.453,0.417-0.582c0.09-0.129,0.266-0.373,0.39-0.542c0.125-0.17,0.282-0.39,0.35-0.489
	c0.067-0.1,0.159-0.225,0.203-0.281c0.044-0.055,0.165-0.219,0.267-0.365c0.102-0.145,0.238-0.332,0.301-0.415
	s0.208-0.281,0.322-0.44c0.113-0.16,0.226-0.314,0.25-0.344c0.044-0.054,0.052-0.055,0.499-0.033
	c1.795,0.087,2.877,0.108,5.427,0.109c1.58,0,2.969-0.012,3.475-0.03c1.096-0.039,2.098-0.079,2.251-0.091L55.51,55.184
	L55.51,55.184z"/>
<radialGradient id="SVGID_2_" cx="3937.1094" cy="-11594.4922" r="781.8535" gradientTransform="matrix(0.0342 0 0 -0.0309 -84.8024 -309.9402)" gradientUnits="userSpaceOnUse">
	<stop  offset="0" style="stop-color:#FFFFFF;stop-opacity:0"/>
	<stop  offset="0.8487" style="stop-color:#FFFFFF;stop-opacity:0"/>
	<stop  offset="1" style="stop-color:#FFFFFF"/>
</radialGradient>
<path fill="url(#SVGID_2_)" d="M31.29,58.85c-0.856-0.01-1.048,2.365-0.693,2.781c2.712,4.051,6.77,7.188,11.384,8.764
	c0.549-0.453,2.037-1.195,2.224-1.69c-2.085-1.839-4.161-4.052-5.908-6.212c-2.315-1.018-4.35-2.02-6.264-3.15
	C31.745,58.996,31.498,58.854,31.29,58.85L31.29,58.85z M67.965,59.188c-0.407-0.001-0.953,0.465-1.613,0.822
	c-1.783,0.961-3.66,1.769-5.522,2.537c-1.767,2.215-3.47,4.791-5.585,6.674c0.975,0.912,2.297,1.76,3.527,0.727
	c4.156-1.798,7.748-4.877,10.149-8.719c-0.065-0.257-0.165-0.584-0.271-0.925C68.513,59.47,68.281,59.188,67.965,59.188
	L67.965,59.188z"/>
</svg>
