<?xml version="1.0" encoding="UTF-8"?>
<svg viewBox="0 0 3970.6 2660.2" xmlns="http://www.w3.org/2000/svg" xmlns:xlink="http://www.w3.org/1999/xlink">
 <defs>
  <filter id="cq" x="-.10458" y="-.031148" width="1.2092" height="1.0623" color-interpolation-filters="sRGB">
   <feGaussianBlur stdDeviation="3.640641"/>
  </filter>
  <filter id="cr" x="-26.919" y="-15.853" width="54.837" height="32.707" color-interpolation-filters="sRGB">
   <feGaussianBlur stdDeviation="10.527732"/>
  </filter>
  <filter id="cp" x="-.026338" y="-.27033" width="1.0527" height="1.5407" color-interpolation-filters="sRGB">
   <feGaussianBlur stdDeviation="2.845473"/>
  </filter>
  <filter id="cn" color-interpolation-filters="sRGB">
   <feGaussianBlur stdDeviation="3.389115"/>
  </filter>
  <filter id="co" color-interpolation-filters="sRGB">
   <feGaussianBlur stdDeviation="1.377189"/>
  </filter>
  <filter id="cs" x="-.29376" y="-.061714" width="1.5875" height="1.1234" color-interpolation-filters="sRGB">
   <feGaussianBlur stdDeviation="10.527732"/>
  </filter>
  <filter id="cy" color-interpolation-filters="sRGB">
   <feGaussianBlur stdDeviation="6.143313"/>
  </filter>
  <filter id="cm" x="-.21735" y="-.071851" width="1.4347" height="1.1437" color-interpolation-filters="sRGB">
   <feGaussianBlur stdDeviation="12.462976"/>
  </filter>
  <filter id="cx" color-interpolation-filters="sRGB">
   <feGaussianBlur stdDeviation="1.216777"/>
  </filter>
  <filter id="cu" color-interpolation-filters="sRGB">
   <feGaussianBlur stdDeviation="4.290824"/>
  </filter>
  <filter id="ct" x="-.17935" y="-.077262" width="1.3587" height="1.1545" color-interpolation-filters="sRGB">
   <feGaussianBlur stdDeviation="9.090098"/>
  </filter>
  <filter id="cv" color-interpolation-filters="sRGB">
   <feGaussianBlur stdDeviation="3.870489"/>
  </filter>
  <filter id="cw" color-interpolation-filters="sRGB">
   <feGaussianBlur stdDeviation="2.767259"/>
  </filter>
  <filter id="ba" color-interpolation-filters="sRGB">
   <feGaussianBlur stdDeviation="7.35548"/>
  </filter>
  <filter id="ce" color-interpolation-filters="sRGB">
   <feGaussianBlur stdDeviation="7.168106"/>
  </filter>
  <filter id="cd" color-interpolation-filters="sRGB">
   <feGaussianBlur stdDeviation="4.913216"/>
  </filter>
  <filter id="cb" color-interpolation-filters="sRGB">
   <feGaussianBlur stdDeviation="11.409528"/>
  </filter>
  <filter id="ca" color-interpolation-filters="sRGB">
   <feGaussianBlur stdDeviation="3.123984"/>
  </filter>
  <filter id="cc" color-interpolation-filters="sRGB">
   <feGaussianBlur stdDeviation="6.295997"/>
  </filter>
  <filter id="cl" color-interpolation-filters="sRGB">
   <feGaussianBlur stdDeviation="5.392882"/>
  </filter>
  <filter id="ck" color-interpolation-filters="sRGB">
   <feGaussianBlur stdDeviation="11.972713"/>
  </filter>
  <filter id="cj" color-interpolation-filters="sRGB">
   <feGaussianBlur stdDeviation="4.698411"/>
  </filter>
  <filter id="cf" color-interpolation-filters="sRGB">
   <feGaussianBlur stdDeviation="3.539658"/>
  </filter>
  <filter id="ch" color-interpolation-filters="sRGB">
   <feGaussianBlur stdDeviation="5.979103"/>
  </filter>
  <filter id="cg" color-interpolation-filters="sRGB">
   <feGaussianBlur stdDeviation="4.585743"/>
  </filter>
  <filter id="ci" color-interpolation-filters="sRGB">
   <feGaussianBlur stdDeviation="4.914088"/>
  </filter>
  <linearGradient id="bg" x1=".2312" x2=".80771" y1="-1.5141" y2=".68659">
   <stop stop-color="#fff" offset="0"/>
   <stop stop-color="#fff" stop-opacity="0" offset="1"/>
  </linearGradient>
  <linearGradient id="bi" x1="1.563" x2=".19327" y1="1.3333" y2=".24001">
   <stop stop-color="#fff" offset="0"/>
   <stop stop-color="#fff" stop-opacity="0" offset="1"/>
  </linearGradient>
  <linearGradient id="bf" x1=".29796" x2=".61043" y1="-.000841" y2=".96367">
   <stop stop-color="#fff" offset="0"/>
   <stop stop-color="#fff" stop-opacity="0" offset="1"/>
  </linearGradient>
  <linearGradient id="bh" x1=".6535" x2=".20066" y1="-1.7235" y2="1.1287">
   <stop stop-color="#fff" offset="0"/>
   <stop stop-color="#fff" stop-opacity="0" offset="1"/>
  </linearGradient>
  <linearGradient id="bd" x1=".21468" x2=".69234" y1="-1.8211" y2=".96342" xlink:href="#bb"/>
  <linearGradient id="bb">
   <stop stop-color="#fff" offset="0"/>
   <stop stop-color="#fff" stop-opacity="0" offset="1"/>
  </linearGradient>
  <linearGradient id="be" x1=".20387" x2="1.1433" y1=".88853" y2=".31697">
   <stop stop-color="#84867c" offset="0"/>
   <stop stop-color="#84867c" stop-opacity="0" offset="1"/>
  </linearGradient>
  <linearGradient id="cz" x1="-.003228" x2=".52581" y1=".66854" y2=".056178" xlink:href="#bb"/>
  <linearGradient id="bj" x1=".25862" x2=".68391" y1=".03941" y2=".57143">
   <stop stop-color="#fff" offset="0"/>
   <stop stop-color="#fff" stop-opacity="0" offset="1"/>
  </linearGradient>
  <linearGradient id="bc" x1="1.5714" x2="-1.0357" y1=".66929" y2=".49606">
   <stop offset="0"/>
   <stop stop-opacity="0" offset="1"/>
  </linearGradient>
  <linearGradient id="bl" x1=".92308" x2=".54359" y1=".97386" y2=".28758">
   <stop stop-color="#333" offset="0"/>
   <stop stop-color="#333" stop-opacity="0" offset="1"/>
  </linearGradient>
  <linearGradient id="br" x1="6.186" x2="-1.1511" y1="2.0408" y2="-.14514">
   <stop stop-color="#fff" offset="0"/>
   <stop stop-color="#fff" stop-opacity="0" offset="1"/>
  </linearGradient>
  <linearGradient id="bk" x1=".45905" x2=".80859" y1=".082737" y2=".73808">
   <stop stop-color="#fff" offset="0"/>
   <stop stop-color="#fff" stop-opacity="0" offset="1"/>
  </linearGradient>
  <linearGradient id="bs" x1=".92924" x2=".6934" y1="4.7818" y2="-1.6364">
   <stop offset="0"/>
   <stop stop-opacity="0" offset="1"/>
  </linearGradient>
  <linearGradient id="bu" x1=".15622" x2=".49443" y1="4.2327" y2="-.3158">
   <stop stop-color="#fff" offset="0"/>
   <stop stop-color="#fff" stop-opacity="0" offset="1"/>
  </linearGradient>
  <linearGradient id="bt" x1=".96777" x2="-3.3e-5" y1=".092303" y2=".8">
   <stop stop-color="#fff" offset="0"/>
   <stop stop-color="#fff" stop-opacity="0" offset="1"/>
  </linearGradient>
  <linearGradient id="bq" x1=".047837" x2="1.8186" y1=".36224" y2=".69338">
   <stop stop-color="#fff" offset="0"/>
   <stop stop-color="#fff" stop-opacity="0" offset="1"/>
  </linearGradient>
  <linearGradient id="bp" x1="-.14596" x2="1.4463" y1="-.55452" y2="-.28213">
   <stop stop-color="#fff" offset="0"/>
   <stop stop-color="#fff" stop-opacity="0" offset="1"/>
  </linearGradient>
  <linearGradient id="bm" x1=".35659" x2=".56589" y1=".012499" y2="1.1">
   <stop stop-color="#fff" offset="0"/>
   <stop stop-color="#fff" stop-opacity="0" offset="1"/>
  </linearGradient>
  <linearGradient id="bo" x1=".60424" x2=".62544" y1="4.9817" y2="-.76538">
   <stop stop-color="#fff" offset="0"/>
   <stop stop-color="#fff" stop-opacity="0" offset="1"/>
  </linearGradient>
  <linearGradient id="bn" x1="1.5122" x2="-.14635" y1="1.189" y2="-.17323">
   <stop offset="0"/>
   <stop stop-opacity="0" offset="1"/>
  </linearGradient>
  <radialGradient id="bv" cx="-3784.4" cy="-153.33" r="832.59" gradientTransform="matrix(2.1232 0 0 2.1232 9871.6 1675.8)" gradientUnits="userSpaceOnUse">
   <stop stop-color="#fff" offset="0"/>
   <stop stop-color="#cbcbc7" offset=".5"/>
   <stop stop-color="#b1b1ab" offset=".62443"/>
   <stop stop-color="#979890" offset="1"/>
  </radialGradient>
  <radialGradient id="bx" cx="-3530" cy="525.45" r="781.86" gradientTransform="matrix(1.3587 2.7091e-8 -2.4488e-8 1.2282 6778.4 633.3)" gradientUnits="userSpaceOnUse">
   <stop stop-color="#fff" stop-opacity="0" offset="0"/>
   <stop stop-color="#fff" stop-opacity="0" offset=".84872"/>
   <stop stop-color="#fff" offset="1"/>
  </radialGradient>
  <radialGradient id="by" cx="-3717.7" cy="184.13" r="209.63" gradientTransform="matrix(2.2801 -.63185 .17505 .63168 10266 -1530)" gradientUnits="userSpaceOnUse">
   <stop stop-color="#fff" offset="0"/>
   <stop stop-color="#fff" stop-opacity="0" offset="1"/>
  </radialGradient>
  <radialGradient id="bz" cx="-4031.1" cy="-149.42" r="192.84" gradientTransform="matrix(1.3658 -.11354 .058805 .7074 1483.6 -501.41)" gradientUnits="userSpaceOnUse">
   <stop offset="0"/>
   <stop stop-opacity="0" offset="1"/>
  </radialGradient>
  <radialGradient id="bw" cx="-2722.2" cy="631.16" r="93.851" gradientTransform="matrix(1.3365 .31524 -.59302 2.5142 1289.6 -156.34)" gradientUnits="userSpaceOnUse">
   <stop offset="0"/>
   <stop stop-opacity="0" offset="1"/>
  </radialGradient>
 </defs>
 <path d="m2890.4 1283.6c0 507.33-411.27 918.6-918.6 918.6s-918.6-411.27-918.6-918.6 411.27-918.6 918.6-918.6 918.6 411.27 918.6 918.6z" fill="url(#bv)"/>
 <g fill="none">
  <path d="m2747 1562.6c10.619 7.0794 72.059-213.08 75.415-226.25 3.5029-13.746 48.655-60.819 48.655-60.819" filter="url(#ct)" opacity=".44" stroke="url(#bw)" stroke-width="20"/>
  <path d="m1538.1 1814.7l197.82-275.23s457.67-6.0303 463.67-1.3584 201.09 267.25 201.09 267.25" filter="url(#cb)" stroke="#36372e" stroke-width="13"/>
 </g>
 <path d="m2222.8 1524.5s172.02 247.71 189.22 258.03c17.21 10.32 282.12-130.74 292.44-144.5 10.32-13.762 24.08-30.964 24.08-30.964s0 55.047-24.08 75.689c-24.08 20.643-282.11 144.5-282.11 144.5l-227.07-306.2 27.52 3.4399z" fill="url(#cz)" filter="url(#cc)"/>
 <path d="m1119.5 1304.3c15.318 103.21 53.496 247.71 96.332 350.92l-3.4404 86.011" fill="none" filter="url(#cs)" opacity=".672" stroke="url(#bc)" stroke-width="19.6"/>
 <path d="m1060.7 1401.5c45.626 356.1 295.12 648.41 627.72 756.16 25.322-13.275 76.099-39.042 92.313-40.844 21.894-2.4331 184.88 0 221.38 0 36.491 0 84.49-24.264 126.69-18.031 23.554 3.4792 42.887 17.899 64.781 30.062 21.119 11.733 63.812 28.062 63.812 28.062 241.81-79.033 439.44-255.68 546.34-483.41-53.142-33.463-21.089-113.22-19.875-230.03-70.983 59.502-156.28 110.52-238.44 148.66-12.012 3.3882-24.416 4.9524-37.594 2.6875-28.071-3.6838-44.613 22.029-69.375 27.812-27.716-6.2476-36.867 31.669-61.438 22.281-18.31-24.282-18.014-2.596-23.25 13.719-21.14 4.291-100.56-83.529-117.21-82.999-8.2788 4.9893 50.608 63.534 29.54 78.356-77.298 54.379-208.87 54.237-318.11 54.237-87.307 0-228.5 8.449-264.06-46.375-16.04-24.729 63.428-96.587 50.156-128.25-17.678 9.4031-79.902 94.408-116.84 121.66-24.034 17.728-24.47-17.771-39.156-15.938-0.15039-0.088623-0.28027-0.19751-0.4375-0.28125-65.281-56.648-107.32 8.5483-162.03-29.75-10.647 3.8406-22.2 13.584-33.719 6.875-7.563-9.364-18.225-6.2339-28.25-3.1875-83.795-28.962-136.93-12.748-174.14-77.132-60.71 32.426-115.44-70.097-118.8-134.34z" fill="url(#bd)" filter="url(#ca)"/>
 <path d="m2267.1 413.52c2.6523 22.03 43.095 66.721 48.844 78.219 7.2983 14.597 94.884 63.266 131.38 87.594 36.491 24.328 19.447 14.605 24.312 36.5 4.8652 21.895 31.653 75.403 46.25 121.62 14.596 46.222 21.884 145.96 26.75 172.72 4.8652 26.76-14.601 63.244-34.062 92.438-19.462 29.193-162.98 48.678-184.88 43.812-21.894-4.8655-347.91-231.12-347.91-231.12s245.72 231.11 311.41 272.47c65.685 41.357 53.509-12.17 90-19.469 36.491-7.2983 226.25-72.961 274.91-85.125 48.655-12.164 36.495-41.364 34.062-99.75-1.7505-42.012 24.208-84.019 33.469-130.56-110.89-156.38-269.46-276.55-454.53-339.34z" fill="url(#be)" filter="url(#ce)" opacity=".466"/>
 <path d="m1971.8 365.02c-100.55 0-197.3 16.176-287.85 46.032-13.46 25.508-27.81 55.158-37.53 77.593-2.02 4.675-4.27 9.85-5 11.5-0.91016 2.073-3.3101 4.027-7.7202 6.375-3.5 1.869-10.05 5.365-14.56 7.75-4.5 2.386-10.32 5.686-12.94 7.344-2.6099 1.658-5.0996 3.031-5.5298 3.031-0.42041 0-4.0503 1.951-8.0601 4.344s-11.78 6.96-17.28 10.156c-9.1699 5.327-18.73 11.2-38.28 23.438-9.8599 6.169-57.16 37.527-65 43.093-3.46 2.457-11.11 8.017-17 12.344-5.8901 4.328-12.75 9.239-15.22 10.938-2.48 1.699-6.7803 4.9011-9.5601 7.1249-2.79 2.2237-8.6001 6.7624-12.91 10.062-4.3101 3.3001-13.06 10.201-19.44 15.344-6.3701 5.1428-14.26 11.443-17.53 14-3.27 2.5572-6.7197 5.412-7.6899 6.3439-1.9297 1.8745-4.77 2.4685-15.87 3.3124-4.1304 0.31348-9.3003 0.74805-11.5 0.96875-2.2002 0.22058-7.1504 0.64172-11 0.9375-3.8501 0.29578-10.6 0.97607-15 1.5314-4.4004 0.55505-10.61 1.2629-13.78 1.5624-3.1802 0.29944-10.38 1.2319-16 2.0626-5.6299 0.83057-12.47 1.7229-15.22 2-1.1802 0.11902-4.2402 0.55603-8.0303 1.125-128.72 154.2-207.83 351.23-212.82 566.59 5.1396 4.3708 9.9297 8.407 12.82 10.719 2.3999 1.925 8.79 7.0998 14.18 11.5 5.3999 4.3999 10.78 8.675 11.97 9.5 1.2002 0.82495 5.8604 4.425 10.38 8 4.5098 3.575 10.99 8.4329 14.37 10.813 11.79 8.3 11.21 7.2419 14.66 27.187 0.62012 3.575 1.73 9.425 2.4702 13 0.73975 3.575 2.0796 10.325 3 15 5.1699 26.341 6.9898 34.712 12.65 58.5 10.88 45.705 25.73 96.802 41.16 141.5 2.1802 6.325 4.6504 13.525 5.4702 16 1.5698 4.75 5.3599 15.084 13.44 36.5 2.6899 7.1499 5.6201 15.025 6.5 17.5 0.87988 2.4748 2.27 5.488 3.0601 6.719 1.3101 2.0249 1.1001 3.314-2.1602 13.5-5.7197 17.872-6.2998 19.771-9.0898 29.281-1.4502 4.95-3.0801 10.125-3.5898 11.5-0.52002 1.375-1.7602 5.6499-2.79 9.5-1.02 3.8498-3.1104 11.5-4.6201 17-1.5098 5.5-3.1099 11.349-3.5298 12.999-0.42041 1.6499-1.7602 6.5998-2.9702 11-1.21 4.3999-2.4302 8.8999-2.6899 10-0.24023 1.0398-0.55029 2.25-0.72022 2.8498 112.5 184.06 287.99 325.43 496.47 394.18 0.27978-0.17993 0.43018-0.27002 0.72022-0.46997 7.8696-5.2502 16.05-10.68 18.19-12.06 4.1305-2.6602 11.22-7.6201 19.65-13.75 2.8398-2.0601 8.9199-6.4202 13.5-9.6902 4.5898-3.26 13.51-9.7898 19.82-14.5 6.3101-4.71 12.83-9.3999 14.5-10.43 1.6602-1.04 3.25-2.22 3.5298-2.5998 0.56055-0.77002 11.77-9.4202 16.65-12.84 3.4502-2.4099 2.5996-2.4099 39.35 0.81006 55.73 4.8899 125.81 6.7998 186.72 5.0898 44.63-1.24 65.14-2.3699 108.78-6l23-1.8999 3.5 2.3699c4.29 2.9302 10.32 7.3801 25.12 18.5 10.25 7.7102 32.09 23.56 43.32 31.44 11.24 7.8999 27.21 18.47 39.15 26.13 208.27-68.61 383.62-209.7 496.19-393.41-2.53-10.01-6.99-27.21-7.72-29.719-0.47998-1.6502-1.5901-5.4751-2.47-8.5-0.87012-3.0252-2.96-10.225-4.6502-16-1.7-5.7752-3.47-12.075-3.9399-14-0.46997-1.925-1.8401-6.6502-3.03-10.5-1.2-3.8501-2.78-9.0252-3.4998-11.5-1.1699-4.0271-3.2202-10.307-6.9399-21.093-1.1499-3.3391-0.95996-4.2671 2.7197-13 2.1802-5.1731 5.48-13.682 7.3101-18.907 4.6599-13.254 8.3301-23.143 9.47-25.5 0.53003-1.1001 2.96-7.8501 5.4099-15 2.4402-7.1502 5.1602-15.025 6.03-17.5 1.96-5.5671 10.08-31.421 14.94-47.5 1.9902-6.6001 4.8-15.825 6.2402-20.5 1.45-4.675 3.21-10.975 3.8799-14 0.66992-3.0252 3.0901-12.237 5.4099-20.469 2.3101-8.231 4.5701-16.781 5.03-19 0.44995-2.218 2.4302-10.556 4.3701-18.531 3.49-14.313 6.04-25.875 9.22-41.5 0.8999-4.4002 2.27-10.925 3.03-14.5 1.8298-8.5801 6.0798-32.215 6.9099-38.375 0.72998-5.4431 2.9199-7.971 12.5-14.406 3.02-2.032 6.2-4.385 7.0601-5.219 0.85986-0.83398 3.7-3.075 6.3101-5 2.6199-1.925 6.8699-5.2061 9.4399-7.281 2.5801-2.075 5.1399-4.115 5.6899-4.531 4.1101-3.1169 16.66-13.122 19.59-15.625 1.98-1.689 5.8101-4.863 8.47-7.063 2.2-1.8201 5.28-4.4741 7.75-6.625-5.0701-215.12-84.11-411.93-212.66-566-0.76025-0.1123-1.5601-0.2207-2.1504-0.3125-1.6499-0.25598-5.25-0.74731-8-1.0939-2.75-0.34644-9.2197-1.2434-14.41-2-5.1802-0.75659-9.77-1.1638-10.18-0.90613-0.41992 0.25757-1.0601 0.005493-1.4102-0.5625-0.34961-0.56799-1.04-0.78943-1.5601-0.46887-0.52002 0.32068-4.21 0.13171-8.1899-0.4375-9.8896-1.4136-30.63-3.4758-46.75-4.6561-11.19-0.81934-9.5698 0.15381-38.28-22.938-6.8398-5.5-16.8-13.375-22.16-17.5-5.3599-4.125-11.45-8.85-13.53-10.5-12.18-9.6704-53.52-38.737-77.81-54.718-24.83-16.333-70.16-44.041-88.72-54.25-2.75-1.513-9.7295-5.373-15.5-8.563-5.7798-3.19-13.8-7.545-17.85-9.687-6.6401-3.526-7.52-4.372-9.3701-8.844-2.3101-5.61-3.6699-8.675-10.25-23.438-6.1699-13.851-20.13-42.807-30.34-63.156-90.94-30.14-188.18-46.469-289.22-46.469zm-329.85 138.44l24.69 0.625c21.44 0.55102 56.3 2.285 82.69 4.093 14.79 1.014 53.37 4.923 68.5 6.938 1.9199 0.25702 7.3203 0.92304 12 1.5 10.16 1.255 19.99 2.611 29.5 4.062 3.8506 0.58801 9.9199 1.513 13.5 2.032 3.5703 0.51904 8.9702 1.363 12 1.906 3.0205 0.54303 8.4702 1.439 12.09 1.969 3.6196 0.52899 9.9199 1.686 14 2.562 4.0796 0.87598 11.23 2.218 15.91 3 4.6699 0.78302 13.9 2.584 20.5 4 6.6006 1.417 14.24 3.028 16.97 3.563 2.73 0.53503 5.23 1.283 5.5601 1.687 0.74023 0.92297-0.77002 220.89-1.7803 258.66l-0.75 27.906-6.5 4c-3.5801 2.1931-13.25 8.1261-21.5 13.187-32.54 19.964-92.5 58.973-123.38 80.25-27.07 18.663-36.66 25.366-59.62 41.719-49.28 35.101-103.09 75.468-143.69 107.78-8.8106 7.0129-16.3 12.71-16.66 12.657-0.3501-0.053955-6.5-1.889-13.65-4.063-7.1494-2.1741-20.649-6.154-30-8.844-9.3496-2.689-23.75-6.8981-32-9.343-26.55-7.868-47.5-13.873-67-19.219-9.6997-2.6591-19.64-5.434-37-10.344-21.91-6.197-25.29-7.149-43.5-12.156-10.18-2.798-21.43-5.915-25-6.938-3.5801-1.0231-11-3.047-16.5-4.5-18.5-4.885-20.98-5.563-25.63-7.031-2.5498-0.80505-5.3301-1.469-6.1797-1.469-0.86035 0-1.8101-0.40308-2.1001-0.875-0.54004-0.88 1.0898-15.215 3.9399-34.625 0.89014-6.05 1.98-13.7 2.4399-17 1.4199-10.266 4.1201-26.159 6.3701-37.5 0.81982-4.125 2.2798-11.775 3.2197-17 0.94043-5.225 2.3101-11.821 3.0601-14.656 0.76025-2.835 1.3804-6.186 1.3804-7.437 0-1.252 0.41992-3.6549 0.93994-5.344 0.50977-1.689 1.4497-5.7629 2.0898-9.063 1.7402-8.986 3.8101-18.284 5.5601-25 2.3398-8.9755 3.0801-11.97 5.8799-24 1.4102-6.05 3.0601-12.35 3.6499-14 0.6001-1.65 1.4502-4.5751 1.9102-6.5 2.4399-10.197 3.23-13.172 5.4399-20.5 1.3198-4.4 3.1499-10.7 4.0601-14 0.91016-3.2999 2.2798-7.4751 3.0601-9.2812 0.77978-1.8062 1.4102-3.8191 1.4102-4.4688 0-1.1747 11.69-36.887 16.44-50.25 1.3999-3.9517 3.5298-7.8708 4.8999-9 28.74-23.6 70.88-56.088 93.16-71.812 9.0102-6.363 62.31-42.084 70-46.907 2.75-1.725 7.25-4.552 10-6.312 3.9702-2.543 33.53-20.226 43-25.719 11.53-6.689 27.07-15.278 43.81-24.219l8.8096-4.718zm659.88 0.062l10.75 5.656c10.21 5.382 20.09 10.86 35.75 19.844 3.8506 2.209 8.8003 4.99 11 6.156 16.3 8.643 86.81 53.771 107.5 68.813 3.5703 2.599 8.3003 5.95 10.5 7.437 13.86 9.372 44.41 32.572 73.62 55.907 23.64 18.874 22.42 17.389 27.47 33.312 1.3101 4.125 2.79 8.4 3.2798 9.5 1.6201 3.5763 10.14 30.937 10.13 32.531 0 0.85254 0.39014 1.9775 0.87012 2.5 0.72998 0.78284 8.1099 26.1 12.22 41.969 0.56982 2.2001 1.5 5.35 2.0601 7 1.5298 4.4814 7.2598 28.147 8.7197 36.031 0.41992 2.2201 1.0698 4.5186 1.4399 5.1255 0.62988 1.0171 2.8203 10.251 4.7202 19.843 0.43994 2.2001 1.3101 6.475 1.9399 9.5 0.62012 3.025 1.4898 7.525 1.9399 10 0.43994 2.475 1.7202 9 2.8398 14.5 1.1201 5.5 2.8101 14.275 3.75 19.5 0.93994 5.225 2.3203 12.275 3.0903 15.688 0.77978 3.4131 1.4097 7.583 1.4097 9.25 0 1.666 0.43994 4.936 0.97022 7.281 0.52002 2.345 1.6699 9.456 2.5601 15.781 0.88965 6.325 1.98 14.2 2.4697 17.5 0.97022 6.65 2.6304 18.707 3.4702 25.219 0.50977 3.975 0.37012 4.2679-2.2202 4.875-4.7598 1.114-12.47 3.122-20.47 5.344-4.2402 1.178-8.52 2.327-9.5 2.531-2.2402 0.46497-11.48 2.894-18.47 4.875-19.24 5.449-27.32 7.7149-34.81 9.687-4.6797 1.231-11.2 3.0389-14.5 4.032-3.2998 0.99194-13.65 3.885-23 6.437-9.3496 2.553-20.6 5.712-25 7-4.3994 1.2889-23.53 6.681-42.5 12-18.98 5.32-38.55 10.975-43.5 12.563-4.9497 1.587-14.63 4.427-21.5 6.312-6.8799 1.886-18.8 5.2999-26.5 7.594-7.6997 2.2939-14.67 4.365-15.5 4.594-0.83984 0.229-5.5596-2.816-10.5-6.782-99.44-79.811-236.98-176.49-340.72-239.5l-22.69-13.781-0.0601-143.16-0.0303-143.12 5.75-1.062c3.1602-0.58301 8.9004-1.777 12.75-2.657 3.8506-0.87903 12.851-2.707 20-4.031 7.1504-1.324 16.601-3.101 21-3.969 4.4004-0.867 10.7-1.997 14-2.5 3.3003-0.50299 8.7002-1.384 12-1.969 13.08-2.316 27.84-4.444 51.5-7.437 6.8701-0.87 15.42-2.049 19-2.594 7.6699-1.169 44.04-4.768 55.5-5.5 4.4004-0.28101 10.02-0.729 12.5-1 2.4702-0.27002 8.5503-0.72101 13.5-1 4.9502-0.27899 11.92-0.737 15.5-1 11.41-0.83698 27.88-1.483 51.25-2.062l22.75-0.563zm-1006.2 504.13c0.39014 0.00293 5.6699 1.3939 11.72 3.094 6.0498 1.7 12.8 3.561 15 4.125 2.1997 0.56396 5.9297 1.692 8.2798 2.5 2.3501 0.80798 5.6802 1.665 7.4102 1.938 1.7197 0.27197 4.29 0.96704 5.7197 1.531 1.4199 0.56396 6.6401 2.0599 11.59 3.312 4.9497 1.252 11.25 2.957 14 3.813 4.1499 1.292 22.76 6.632 37.5 10.75 1.9199 0.53796 8.8999 2.598 15.5 4.562 6.5996 1.965 12.88 3.728 13.94 3.938 1.0498 0.20898 4.6499 1.2579 8 2.344 3.3398 1.085 8.5298 2.619 11.56 3.406 7.2602 1.889 41.11 11.984 52.5 15.656 4.9502 1.596 15.97 4.936 24.5 7.406 8.5205 2.471 23.15 6.834 32.5 9.688 9.3506 2.853 19.25 5.8359 22 6.656 2.75 0.81995 5.3403 1.818 5.75 2.188 0.40039 0.36902 3.7002 12.119 7.3106 26.124 3.6094 14.006 8.3696 31.769 10.59 39.469 2.23 7.7 5.29 18.5 6.8198 24 4.5801 16.473 14.92 52.113 19.15 66 2.1802 7.1499 5.3301 17.5 7 23 1.6802 5.5 5.7803 18.55 9.1001 29 3.3101 10.45 6.9302 21.925 8.0601 25.5 10.55 33.303 32.03 96.3 46.19 135.5 11.08 30.682 22.3 61.111 24.03 65.125 1.4502 3.3789 1.2002 3.8079-27.91 43.875-3.5903 4.95-11.19 15.525-16.87 23.5-16.47 23.112-25.41 35.584-35.13 49.094-4.9898 6.939-11.44 15.939-14.31 20-2.8701 4.061-9.75 13.706-15.25 21.406s-16.16 22.775-23.69 33.5c-7.52 10.725-15.62 22.199-18.03 25.499-8.7305 11.98-28.75 40.26-36.09 51-8.8398 12.94-9.2602 13.42-11.22 12.75-3.0801-1.05-21.24-8.29-24.31-9.6902-1.7602-0.7898-7.6904-3.3198-13.19-5.6199-5.5-2.3-11.13-4.79-12.5-5.53-1.3799-0.75-6.7798-3.1399-12-5.3201-5.2295-2.1699-12.2-5.27-15.5-6.8999-3.2998-1.6401-8.9297-4.2-12.5-5.6899-3.5801-1.49-8.98-3.97-12-5.53-3.0303-1.5601-9.1001-4.46-13.5-6.4399-4.4004-1.97-9.1304-4.26-10.5-5.0901-1.3804-0.84009-4.98-2.6699-8-4.0601-3.0303-1.3899-7.75-3.6899-10.5-5.1299-2.75-1.4399-10.85-5.6401-18-9.3101-16.84-8.6589-35.58-18.778-37.09-20.032-0.65967-0.54297-4-2.334-7.4399-4-3.4399-1.667-8.6401-4.5671-11.56-6.438-2.9297-1.8711-7.5-4.5571-10.13-5.969-8.3599-4.4851-15.59-8.6899-22.28-12.969-3.5801-2.2852-8.75-5.4341-11.5-7-2.75-1.5649-8.1504-4.916-12-7.437-7.8804-5.158-8.1001-5.292-16.16-10-3.21-1.874-7.6401-4.811-9.8398-6.531-2.2002-1.721-5.25-3.9351-6.7803-4.906-1.54-0.97192-3.1997-2.761-3.6899-3.969-0.49023-1.209-2.5298-6.0129-4.5298-10.688-2-4.675-5.3501-13.551-7.4702-19.719-2.1201-6.167-4.1602-11.707-4.5298-12.312-2.0801-3.363-23.94-68.361-28.06-83.438-0.75-2.727-2.48-8.352-3.8501-12.5-1.3701-4.147-3.3599-10.906-4.4399-15.031-1.0703-4.125-2.4502-8.8501-3.0303-10.5-1.8301-5.2419-11.12-41.067-11.12-42.875 0-0.9541-1.1001-5.654-2.4404-10.437-4.98-17.775-6.5596-24.072-6.5596-26.188 0-1.1941-0.66016-4.9531-1.4702-8.343-2.1099-8.8269-6.0098-27.709-8-38.657-0.25-1.375-0.97998-5.425-1.6201-9-0.6499-3.575-1.79-9.3411-2.54-12.812-2.8398-13.133-3.0996-12.296 19.91-64.688 16.02-36.488 44.53-94.773 58.91-120.41 3.8896-6.9379 8.6597-15.519 10.59-19.094 15.46-28.577 38.61-67.469 57.72-97 13.05-20.172 15.63-24 16.28-24zm1352.1 0.563c0.22022-0.008057 0.39014 0.027954 0.47022 0.062012 0.6499 0.27502 2.9297 3.282 5.0996 6.688 11.19 17.588 25.88 40.882 29.12 46.187 13.67 22.384 30.16 50.726 38.69 66.5 5.5 10.175 10.31 18.95 10.72 19.5 2.54 3.47 31.86 61.324 41.56 82 13.19 28.134 24.3 53.339 35.19 79.907l4.47 10.874-1.6899 10.126c-1.45 8.804-9.8201 51.839-12.56 64.593-3.6499 16.915-5.4199 24.542-7.4099 32-1.25 4.675-3.26 12.775-4.5 18-3.45 14.531-11.78 44.719-17.5 63.5-6 19.679-15.63 49.939-16.72 52.5-0.58008 1.375-2.98 8.3498-5.3401 15.5-2.3599 7.1499-5.8999 17.275-7.8799 22.5-1.98 5.2248-4.75 12.761-6.1502 16.75-1.3999 3.99-4.96 12.942-7.8799 19.907-6.0801 14.491-3.6899 12.197-29.47 28.468-23.14 14.605-23.42 14.787-25.09 15.532-0.83008 0.36792-3.75 2.1211-6.5 3.906-7.2398 4.699-27.61 16.437-28.53 16.437-0.43994 0-0.93994 0.33789-1.1299 0.75-0.37012 0.83691-7.4902 4.873-15.84 9-3.0298 1.4939-5.73 3.01-6 3.375-0.56006 0.73999-20.83 11.683-40 21.594-6.8799 3.55-13.63 7.0901-15 7.8401-3.5298 1.9399-53.7 25.88-57.5 27.44-1.0996 0.44995-7.25 3.3398-13.66 6.4099-6.4102 3.0701-11.96 5.5901-12.34 5.5901-0.72949 0-3.1997 1.0698-15.25 6.6599-3.9898 1.8501-9.8398 4.3101-13 5.47-3.1597 1.1599-8.1699 3.2-11.13 4.53-2.9502 1.3301-9.9297 4.24-15.5 6.47-5.5698 2.22-10.58 4.26-11.15 4.5-0.56982 0.22998-7.1099-8.25-14.53-18.85-18.72-26.73-49.27-69.977-68.38-96.81-8.8301-12.395-23.49-33.017-32.56-45.812-9.0801-12.796-19.18-26.96-22.44-31.469-3.2602-4.509-10.71-14.938-16.56-23.188-5.8594-8.25-17.73-24.861-26.38-36.906-8.6396-12.045-16.08-22.62-16.53-23.5-0.54004-1.061 1-6.48 4.6001-16.094 2.9795-7.9751 8.5098-23.05 12.28-33.5 3.77-10.45 9.8501-27.325 13.53-37.5 9.1802-25.393 36.22-105.18 40.31-119 0.56982-1.925 3.1299-10.025 5.6894-18 2.5503-7.9751 5.46-17.2 6.4702-20.5 1-3.3 2.7398-8.925 3.8403-12.5 10.12-32.878 23.01-76.806 28.19-96 0.95996-3.575 3.79-13.475 6.2803-22 2.4902-8.525 7.1104-25.625 10.25-38s6.0703-23.17 6.5-23.969c0.42969-0.79797 3.4102-2.22 6.6201-3.187 3.2197-0.96704 11.02-3.43 17.35-5.437 6.3203-2.0081 12.851-3.975 14.5-4.407 4.5703-1.194 43-12.673 51.5-15.375 7.4004-2.3511 44.98-13.357 62.5-18.312 4.9502-1.401 11.7-3.36 15-4.344 3.3003-0.98401 10.27-3.0081 15.5-4.5 5.2202-1.4921 15.57-4.469 23-6.625 23.07-6.699 24.07-6.994 33.41-9.344 5-1.259 10.26-2.748 11.68-3.312 1.4297-0.56396 4-1.259 5.7197-1.531 1.73-0.27295 5.0903-1.13 7.4399-1.938 2.3501-0.80798 6.0503-1.936 8.25-2.5 2.2002-0.56396 8.8901-2.392 14.84-4.062 5.21-1.462 9.9898-2.537 11.53-2.594zm-443.65 527.69l7.1499 9.688c3.9302 5.325 12.53 17.234 19.13 26.437 6.6006 9.2039 14.94 20.622 18.53 25.406 3.5898 4.7849 8.6797 11.869 11.28 15.719 2.6094 3.8498 8.5898 12.175 13.28 18.5 4.6997 6.325 10.19 13.964 12.22 16.969 2.0298 3.0049 7.7398 10.912 12.69 17.594 4.9502 6.6809 16.65 22.873 26 35.968 9.3506 13.096 19.7 27.506 23 32.028 3.3003 4.5298 8.7002 11.95 12 16.5 9.2705 12.8 33.95 47.66 39.09 55.22l4.6001 6.7798-4 5.3201c-3.6001 4.75-26.28 32.3-31.82 38.62-1.2002 1.3799-6.79 7.8999-12.43 14.5-5.6504 6.5998-10.53 12.23-10.85 12.5-0.31982 0.28003-3.52 3.8799-7.0903 8-3.5801 4.1299-6.75 7.73-7.0596 8-0.32031 0.28003-4.7602 5.23-9.8799 11-40.55 45.73-108.64 112.57-162.37 159.38l-6.8501 5.9299-11.15 0.78c-6.1504 0.44019-18.56 1.29-27.57 1.8801-9 0.58984-16.73 1.28-17.18 1.5601-0.45996 0.27978-14.01 1.1899-30.13 2-27.55 1.3899-114.92 2.5898-135.81 1.8799-39.97-1.3601-68.8-2.71-76-3.5601-4.6797-0.56006-14.8-1.4399-22.5-1.9399-39.859-2.6101-38.08-2.3401-42.97-6.3501-4.7803-3.9099-14.38-12.45-27.03-24.03-4.3994-4.02-10.03-8.9802-12.5-11.03-10.75-8.9102-61.58-58.62-90-88.03-38.43-39.75-118-131.48-118-136.03 0-0.52002 2.4404-4.3201 5.4102-8.4399 2.96-4.1201 8.0098-11.32 11.21-16 3.21-4.6702 11.01-15.7 17.32-24.5 6.2998-8.8 13.14-18.47 15.21-21.5 2.0801-3.02 8.0596-11.349 13.32-18.499 5.25-7.1502 13.01-17.95 17.22-24s12.2-17.224 17.75-24.812c5.54-7.5891 12.98-17.983 16.56-23.094 3.5703-5.1111 10.55-14.797 15.5-21.531 4.9502-6.7341 11.19-15.465 13.87-19.406 2.6802-3.9421 6.3101-8.957 8.0703-11.157 1.75-2.2 6.5298-8.7251 10.59-14.5 4.0601-5.7752 9.4503-13.2 11.97-16.5 2.5205-3.3 8.2705-11.175 12.78-17.5 4.5098-6.325 8.96-12.473 9.9399-13.656 1.7398-2.1191 2.0503-2.136 19.78-1.281 71.3 3.439 114.27 4.291 215.5 4.312 62.72 0.013916 117.89-0.46509 138-1.187 43.48-1.563 83.25-3.1631 89.37-3.594l4.8501-0.344z"/>
 <path d="m1628.5 1691.7s102.3-148.3 110.9-150.89c8.6011-2.5803 293.96 6.7334 293.96 6.7334s-267.8 19.45-284.83 22.49c-17.029 3.041-120.02 121.66-120.02 121.66z" fill="url(#bf)" filter="url(#ch)"/>
 <g fill="#ff0">
  <path d="m1608.8 547.36c-0.33301 0.18274-0.83838 0.48608-1.25 0.71875 0.91113-0.2757 1.105-0.50104 1.25-0.71875z"/>
  <path d="m1296.4 1027.4c-0.3042-0.072388-0.5083 0.036133 0.46875 0.125-0.1416-0.036865-0.36475-0.10034-0.46875-0.125z"/>
  <path d="m1182.9 1611.8c-0.032227-0.006104 0.69385 1.1592 0.9375 1.5938-0.020996-0.053711-0.074707-0.13916-0.09375-0.1875-0.1416-0.26978-0.44287-0.77344-0.53125-0.96875-0.13184-0.18848-0.28174-0.43188-0.3125-0.4375z" filter="url(#cr)" opacity=".672" stroke-width="19.6"/>
 </g>
 <path d="m2634.6 1727.5c-70.767 38.151-145.33 70.216-219.25 100.77-70.14 87.931-137.77 190.21-221.77 264.99 38.728 36.201 91.204 69.855 140.06 28.837 165.02-71.39 307.67-193.66 403-346.15-2.5901-10.216-6.5144-23.239-10.741-36.765-12.461-75.702-44.658-36.893-91.297-11.675z" fill="url(#bg)" filter="url(#cd)"/>
 <path d="m1214.9 1791.9c107.68 160.79 268.78 285.37 452 347.94 21.794-17.99 80.878-47.444 88.286-67.135-82.781-72.995-165.19-160.86-234.56-246.63-91.92-40.401-172.72-80.199-248.72-125.1-58.485-70.297-74.567 70.386-57.006 90.924z" fill="url(#bh)" filter="url(#ba)"/>
 <path d="m2346.2 1917.1c-0.17676 0.16675-0.53125 0.52075-0.53125 0.53125 1.0928-0.96558 0.39453-0.38989 0.53125-0.53125z" fill="#ff0"/>
 <path d="m1242.4 1681.5c-34.002-0.41382-41.631 93.911-27.5 110.44 107.68 160.79 268.78 285.36 452 347.94 21.794-17.99 80.873-47.434 88.281-67.125-82.781-72.996-165.19-160.85-234.56-246.62-91.92-40.401-172.72-80.195-248.72-125.09-11.423-13.73-21.247-19.431-29.5-19.531zm1456.2 13.375c-16.153-0.013672-37.828 18.471-64.062 32.656-70.767 38.151-145.33 70.232-219.25 100.78-70.14 87.931-137.78 190.19-221.78 264.97 38.728 36.201 91.207 69.862 140.06 28.844 165.02-71.39 307.66-193.67 403-346.16-2.5901-10.216-6.5232-23.224-10.75-36.75-5.4522-33.12-14.655-44.333-27.219-44.344z" fill="url(#bx)" filter="url(#ba)"/>
 <path d="m2350 1070.7s243.27-68.117 257.87-77.848 17.03-9.731 17.03-21.895c0-12.163-2.4302-65.684-2.4302-65.684l17.03 92.445-289.5 90.012v-17.03z" fill="url(#bi)" filter="url(#cf)"/>
 <path d="m2642 1022.1s-272.47 72.982-279.77 75.415c-7.2983 2.4327-143.53 418.43-143.53 418.43s141.1-384.38 153.26-396.54c12.164-12.164 270.04-87.579 270.04-97.31z" fill="url(#bj)" filter="url(#cg)"/>
 <path d="m1980.2 822.65c-3.4404-17.202 0-275.23 0-275.23l65.37-17.203s-30.97 6.881-48.17 24.083c-17.2 17.203 8.5996 225.35 12.04 242.55 3.4394 17.202 190.95 166.86 190.95 166.86l-220.19-141.06z" fill="#fff" filter="url(#ci)"/>
 <path d="m1440.4 1003.5s-85.74-60.372-97.764-76.431c-12.023-16.059 135.22-266.35 192.96-310.31 57.741-43.968 278.8-80.485 278.8-80.485l-22.636 116.45c-169.15 77.906-252.24 200.22-351.36 350.78z" fill="url(#bk)" filter="url(#cj)"/>
 <path d="m1961.3 547.42s-8.6011 252.87-6.8809 268.35c0.89404 8.05-102.62 70.61-195.4 135.42-85.655 59.836-160.89 122.61-165.85 122.61-10.321 0-302.76-80.85-302.76-80.85" fill="none" filter="url(#ck)" stroke="url(#bl)" stroke-width="20"/>
 <path d="m1586.3 1097.9l-292.44-89.451-151.38 275.24s141.06-240.83 158.26-244.27c17.21-3.441 285.56 58.487 285.56 58.487z" fill="url(#bm)" filter="url(#cl)"/>
 <path d="m1586.3 1104.8c35.292 128.18 78.536 281.52 141.06 436.94" fill="none" filter="url(#cm)" opacity=".852" stroke="url(#bn)" stroke-width="20"/>
 <path d="m1613.8 1103c86.361-84.648 238.29-197.78 357.66-266.69 13.241 0.030518 53.475 27.581 53.475 27.581-21.463-9.2837-27.426-18.473-51.916-20.11-126.9 82.6-243.74 170.55-359.22 259.22z" fill="url(#by)" filter="url(#cn)"/>
 <path d="m1732.5 1487.5s1.7202 22.363 22.363 30.964c20.643 8.6011 414.57 0 428.33 0 13.762 0 36.125-51.607 36.125-51.607s-21.503 61.928-26.664 63.648c-5.1606 1.7202-436.08-2.5803-444.68-2.5803-8.6011 0-15.482-40.425-15.482-40.425z" fill="url(#bo)" filter="url(#co)"/>
 <path d="m1655.1 495.5c68.14-3.654 145.45 3.151 217.59 12.058l41.69-16.512c-79.8-10.166-140.65-9.709-209.06-7.334l-50.22 11.788z" fill="url(#bp)" filter="url(#cp)"/>
 <path d="m1356.2 693.52c-35.91 77.688-52.7 178.94-69.23 280.52 0 0-8.21-21.028-13.34-55.047-8.3296-55.219 39.09-190.75 48.31-198.1l34.26-27.366z" fill="url(#bq)" filter="url(#cq)"/>
 <path d="m2660.9 705.43c71.87 77.922 230.01 521.72 185.19 552.56-29.06 19.991-24.23-3.2029-36.8-39.026 4.6702 50.331 7.51 67.958 17.79 77.461l87.23-67.801c-2.0601-178.98-75.13-357.97-160.52-536.95l-92.89 13.762z" fill="url(#br)" filter="url(#cu)"/>
 <path d="m2307.1 499.25s78.11 45.341 150.5 90.207c56.45 34.986 110.11 71.706 116.14 73.213 13.76 3.4404 98.05 25.803 98.05 25.803l-92.89-10.321-271.8-178.9z" fill="url(#bs)" filter="url(#cv)" opacity=".587"/>
 <path d="m1060.7 1275.1s26.76 41.356 36.49 55.953 38.92 102.18 38.92 102.18l-17.03-114.34-58.38-43.789z" fill="url(#bt)" filter="url(#cw)"/>
 <path d="m1058.7 1255.2s44.68 31.209 59.27 31.209c14.6 0 113.04-247.31 134.94-266.77 21.89-19.462-17.03 55.954-17.03 55.954l-114.34 231.11-58.39-38.924-4.4502-12.581z" fill="url(#bu)" filter="url(#cx)"/>
 <path d="m1316.1 715.56c103.13-89.293 262.66-200.68 384.38-245.71" fill="none" filter="url(#cy)" opacity=".282" stroke="url(#bz)" stroke-width="15"/>
</svg>
